<?xml version="1.0" encoding="utf-8"?>
<!-- Generator: Adobe Illustrator 24.0.0, SVG Export Plug-In . SVG Version: 6.00 Build 0)  -->
<svg version="1.1" id="NexT" xmlns:svg="http://www.w3.org/2000/svg"
	 xmlns="http://www.w3.org/2000/svg" xmlns:xlink="http://www.w3.org/1999/xlink" x="0px" y="0px" viewBox="0 0 512 512"
	 style="enable-background:new 0 0 512 512;" xml:space="preserve">
<style type="text/css">
	.st0{fill:#040000;}
	.st1{fill-rule:evenodd;clip-rule:evenodd;fill:#FFFFFF;}
</style>
<path class="st0" d="M53,174.5c10.3-25.1,26.2-48.2,48.5-68.4C146.8,65,209.1,42.5,270.1,42.6c8.1,0,16.1,0.4,24.1,1.2
	c52.5,5.2,104,29,137.5,69.2c29.6,35.4,44,85,43.9,135.4c0,29.8-5,59.9-14.7,87.4c-9.7,27.5-24,52.4-42.5,72.1
	c-20.1,21.3-45.7,37.8-73.9,48.9c-28.2,11.1-59,16.9-89.1,16.9c-18.6,0-37-2.2-54.4-6.7C145.1,452.6,95.8,416,68.2,365.9
	c-11.5-20.9-19.6-43.8-24.4-67.3c-3.3-16.5-5-32.9-5-48.8C38.8,223.4,43.4,198,53,174.5"/>
<path class="st0" d="M41.1,169.6c-10.3,25.2-15.2,52.2-15.2,80.1c0,16.9,1.8,34.1,5.3,51.4c5,24.7,13.5,48.8,25.7,71
	c29.5,53.5,81.7,92.1,140.8,107.3c18.5,4.8,38,7.1,57.6,7.1c31.8,0,64-6.1,93.8-17.8c29.8-11.7,57-29.2,78.6-52.1
	c20-21.2,35.1-47.7,45.3-76.6c10.2-29,15.4-60.4,15.4-91.7c0-52.8-14.9-105.2-46.9-143.6C405.4,61.5,350.9,36.5,295.4,31
	c-8.4-0.8-16.9-1.2-25.4-1.2c-64.1,0-129.2,23.4-177.1,66.8C69.3,118,52.1,142.7,41.1,169.6"/>
<g>
	<path class="st1" d="M419.9,295.1c-1.2-7.6-5.3-9.5-4.1-19.3c-0.5,0.2-1,0.5-1.5,0.7c-0.1,0.4-0.2,0.7-0.4,1.1
		c-0.2-0.9-0.5-1.7-0.7-2.6c-0.5,0.4-1,0.7-1.5,1.1c-0.8,0.2-0.2,0.3-0.7-0.4c-0.1,0.6-0.2,1.2-0.4,1.9c-0.1,0-0.2,0-0.4,0
		c-0.1-0.6-0.2-1.2-0.4-1.9c-1.6,0.5-1,0.6-2.6,0c-0.1,0.1-0.2,0.2-0.4,0.4c-0.1,0.4-0.2,0.7-0.4,1.1c0.5,0.5,1,1,1.5,1.5
		c-2-0.7-1-1.4-2.6-2.6c-0.2-0.2-0.5-0.5-0.7-0.7c0.1,0.6,0.2,1.2,0.4,1.9c-0.1,0-0.2,0-0.4,0c-0.2-0.2-0.5-0.5-0.7-0.7
		c0.4-1.2,0.5-1,1.1-1.9c-4.5-0.3-10.4-5.1-14.1-2.6c-2.7,1.8-14.6,7.8-19.7,5.6c-0.7-0.9-1.5-1.7-2.2-2.6c-6-3.3-15.7,2.2-20.4,0
		c-2.5-1.1-7.1-4.8-10.4-4.1c-1,0.6-2,1.2-3,1.9c-1.2-0.4-2.5-0.7-3.7-1.1c-3.1,0.8-4.9,3.3-8.2,4.1c-5.7,1.4-18.5-3-17.5-9.3
		c-0.2-0.2-0.5-0.5-0.7-0.7c-1.3,1.3-0.7,0.4-0.4,2.2c-2-0.6-4-1.2-5.9-1.9c-0.8,1.1-0.5,0.8,0,2.2c-0.7-0.1-1.5-0.2-2.2-0.4
		c-0.4,2.1-0.7,4.2-1.1,6.3c-6.2-2.4-8.6,1.4-16,3c-5,1-5.6-2.2-8.2-2.6c-3.5-2.6-1.7-6.4-4.1-9.3c-0.9-1.8,0.1-0.9-1.9-0.7
		c0.1-0.1,0.2-0.2,0.4-0.4c0,0-0.8-10-2.2-11.1c1.7-1.4,1.5-3.5,1.9-5.6c0.2-1.1,0.2-0.3-0.4-1.1c0.9-3.5,9.3-8.4,12.3-4.8
		c0.1-0.5,0.2-1,0.4-1.5c1.4,0.6,2.7,1.2,4.1,1.9c-0.3,0.8,0.2,0.1-0.4,0.7c0.5,1.6,0,1.2,1.5,0.7c-0.1,0.5-0.2,1-0.4,1.5
		c1.2-0.1,2.5-0.2,3.7-0.4c0.9-1.4,1.5-2.3,1.5-3.7c1.3-0.6,1.7-0.1,2.2-0.7c1.8,0.5,1.4,0,1.9,1.9c1.2-0.8,0.8-0.2,1.1-1.9
		c1.5,0.9,1.6,1,3.3,0.4c0.2,0.1,0.5,0.2,0.7,0.4c-0.4,0.2-0.7,0.5-1.1,0.7c0,0.4,0,0.7,0,1.1c1.8-0.6,2-0.7,3.7,0
		c-0.3-1,0.2-0.8-1.5-1.5c0.4-0.2,0.7-0.5,1.1-0.7c5.5,1.8,16.6-3.4,23,1.1c1.2-1.4,0.9-1.4,2.6-1.5c0.4-1.1,0.4,1.1,0.4,1.1
		c2.6-1.3,5-2,8.2-3.3c0.6-0.4,1.4-2.1,3-2.6c2.5-0.9,5.4,0.2,7.8-0.7c0.2,0.5,0.5,1,0.7,1.5c0.4,0,0.7,0,1.1,0c0-1.2-0.2-1.5-0.7-3
		c1.1-0.2,2.2-0.5,3.3-0.7c-0.4-0.6-0.7-1.2-1.1-1.9c5.4-4.9,5.4-13.3,1.5-19c0.7-0.6,0.5-0.5,1.9-0.7c-0.7-2.4-0.5-1.8,1.1-4.1
		c-0.4,0-0.7,0-1.1,0c0.6-1.3,1.1-0.6,2.2-1.9c0.1-0.2-0.5-4.1-0.7-4.8c0-0.1,0-0.2,0-0.4c0.5,0.2,1,0.5,1.5,0.7
		c-0.7-3.4-0.5-2.1,0.4-5.2c-0.5,0.1-1,0.2-1.5,0.4c-0.1-1.1,5.2-13,5.2-13c-0.4-1.1-2.9-5.1-4.1-7.1c0.7-0.7,1.5-1.5,2.2-2.2
		c-0.7,0.1-1.5,0.2-2.2,0.4c1.4-2.5,4.2-8.2,4.8-11.1c-0.1,0-0.2,0-0.4,0c-0.7,0.9-0.2,0.1-0.4,1.1c-2.5-2.2-1.8-4.1-3.3-7.8
		c1.7-0.3,1.1,0.1,1.9-1.1c-0.4,0.1-0.7,0.2-1.1,0.4c2-4.1,1.7-3.5,1.5-8.5c-1.6-0.5-0.7-1-1.9,0.4c-0.3-1.1-0.7-0.9,1.1-1.5
		c-0.7-1.9-2.2-4.9-3.3-6.3c3-1.8,5.9-4.1,6.7-10c-2.1-2-10.4-11.1-10.4-11.9c-0.6-1.6-0.5-2.1-1.5-0.7c-0.4,0-0.7,0-1.1,0
		c0.4-0.6,0.7-1.2,1.1-1.9c-1.9-0.5-2.6-2.8-4.1-1.5c-0.4-0.5-0.7-1-1.1-1.5c0.4,0.2,0.7,0.5,1.1,0.7c-0.2-0.5-0.5-1-0.7-1.5
		c-0.9,0.5-1.2-0.1-0.7-0.7c-0.4-0.4-0.7-0.7-1.1-1.1c-0.5,0.6-1,1.2-1.5,1.8c0,0,0,0,0,0c0,0,0,0,0,0c0,0-0.1-0.1-0.4,0
		c-1.5-0.7-0.5,0.2-0.7-1.5c-0.6,0.5-0.7,0.8-1.1,1.5c-0.4-0.9-0.7-1.7-1.1-2.6c0-0.1,0-0.2,0-0.4c0.9,0.1,0.4,0,1.5,0.4
		c-0.9-1.2-3.1-1.2-4.8-1.9c0.1,0.6,0.2,1.2,0.4,1.9c-1.4-0.7-1.2-0.4-1.5-2.2c-0.9-0.2-1.7-0.5-2.6-0.7c-0.1,0.5-0.2,1-0.4,1.5
		c-3.5-1-3.1-2.8-6.7-2.2c0.2-0.2,0.5-0.5,0.7-0.7c-1.2-0.1-4.8,2.5-7.8,3c-5.3,0.8-11.8-1.8-15.6-3.3c-3.6-1.5-13.4,1.1-18.6-0.7
		c-2.1-0.8-10.9,4-13.4,3c-0.1,0.6-0.2,1.2-0.4,1.9c-3-0.1-5.9-0.2-8.9-0.4c0.2-0.5,0.5-1,0.7-1.5c-2.5-0.4-16.9,5.3-18.6-3
		c-1.6,1.6-3.2,3.2-4.8,4.8c-2.5,1.2-8.4,0.4-11.5,1.5c-0.8-1.4-0.5-2,0-3c-0.7-0.7-1.5-1.5-2.2-2.2c-1,1.1-0.6,0.6-0.7,1.9
		c-1.2-1-2.5-2-3.7-3c-0.1,0.5-0.2,1-0.4,1.5c-0.1,0-0.2,0-0.4,0c0.2-0.7,0.5-1.5,0.7-2.2c-1.9-0.4-3.7-0.7-5.6-1.1
		c0.6,1.3-0.7,0.9-2.2,1.1c0.4,0.5,0.7,1,1.1,1.5c-2.4-1.3-3-2.1-4.5-1.1c0-0.9,0-1.7,0-2.6c-3.6-0.1-3.3,1.1-7.4,0.7
		c0.2,0.2,0.5,0.5,0.7,0.7c-0.7,1.2-1.3,1-2.2,1.9c0.7,0.4,1.5,0.7,2.2,1.1c-1.8,2.8-4.2,1.5-7.8,0.7c-0.1,0.4-0.2,0.7-0.4,1.1
		c0,0.1,0,0.2,0,0.4c1.1-0.5,0.4,0,1.1-0.7c0.4,0,0.7,0,1.1,0c-0.8,2.4-1.3,1.1-3,2.2c-0.2-0.5-0.5-1-0.7-1.5
		c-2.3,0.8-2.5,2.8-5.6,3c0.2,0.1,0.5,0.2,0.7,0.4c-1.9,1.4-5.3-0.6-7.8,0.7c0-0.6,0-1.2,0-1.9c-4.3,0.8-5.1,4.1-8.5,5.2
		c-2.5,0.8-6.2,1.1-9.7,3c-2.4,1.3-2.9,4-5.9,4.8c0.5,1.5,1.2,1.4,1.5,2.2c0.5,1.8-3.3,8.5-3.3,8.5c0.1,0.2,0.2,0.5,0.4,0.7
		c0.7,1.7,0.5,1.1,0.4,4.1c0.6-0.1,1.2-0.2,1.9-0.4c-0.1,1.6,3.6,5.4,3,8.2c0.1,1.3-1.1,1.7-1.9,3.3c-0.8,1.5,2.3,7,2.6,10.4
		c-0.6,0.6-1.2,1.2-1.9,1.9c2.2,4.5,1.8,9.4,4.1,10.4c-0.7,2.1-1.3,1.4-1.9,3.7c-0.9,1-0.3,0.3,0.7,1.1c-0.4,0.1-0.7,0.2-1.1,0.4
		c0.8,0.6,1,0.7,2.6,0.7c-0.2,1.4-0.5,2.7-0.7,4.1c-0.5-0.2-1-0.5-1.5-0.7c0.2,1.8,0.1,1.3,1.5,2.6c0,0.1,0,0.2,0,0.4
		c-1,0.3-1,0-1.9,0.7c0.6,0.9,0.2,0,0,1.1c1.8,2,3.8,4.4,5.2,5.9c-0.5,3-1.6,3.4-2.6,5.6c-1.1,1.6-0.3,2.2,0.7,4.5
		c-0.9,0.1-1.7,0.2-2.6,0.4c1.5,1.1,1.5,0.7,3,0.4c-0.2,0.7-0.5,1.5-0.7,2.2c0.8,0.8,0.5,0.7,1.9,1.1c0,0.1,0,0.2,0,0.4
		c-2.1,1.5-3.7-1-4.5,2.6c0.7,0,1.5,0,2.2,0c-0.1,0.9-0.2,1.7-0.4,2.6c0.9,0.1,1.7,0.2,2.6,0.4c-0.6,2,0.7,7.6,1.5,11.1
		c-0.7,0.1-1.5,0.2-2.2,0.4c0.1,1.4,0.2,2.7,0.4,4.1c1.2,0.6,1.9,0.9,3.3,0.4c0,0.1,0,0.2,0,0.4c-1.3,4.5,2.4,2.2,3.3,4.1
		c1.4,2.8-0.8,5-0.4,7.1c1.1,1.2,6.8,1.8,8.2,1.5c0.4,0.9,0.7,1.7,1.1,2.6c-1.6,0-3.2,0-4.8,0c-0.2,0-0.5,0-0.7,0
		c1.5,3.9,6.2,2.7,7.1,5.9c2.2-0.5,0.5-1.4,2.2-0.4c0.1-0.5,0.2-1,0.4-1.5c1.1-0.1,5.3,1.3,7.4,2.2c0.2-0.5,0.5-1,0.7-1.5
		c0.7,0.4,1.5,0.7,2.2,1.1c-0.5,0-1,0-1.5,0c0.7,0.8,1,0.8,2.2,1.1c0-0.7,0-1.5,0-2.2c0.7,0.4,2.1,2.5,3.3,0
		c0.6,0.7,0.5,0.5,0.7,1.9c1.5-1.5,1.8-1.6,1.1-3.3c0.9,0.2,1.7,0.5,2.6,0.7c0.5-1.2,0.4-0.4-0.4-1.9c2-0.1,4.9,2.3,7.4,3.3
		c1.6-0.4,1-0.1,1.9-1.1c-0.5-0.4-1-0.7-1.5-1.1c5.2,0.5,16.3,0,17.1-3c4.8,0.9,5.8,1.8,11.1,2.2c0.5,0.8,0.4,0.9,1.1,1.5
		c-0.6,2-0.2,1.3-1.5,1.5c0.1,0.5,0.2,1,0.4,1.5c1.1,0.5,2.2,1,3.3,1.5c-0.2,2.5-0.2,3.4,0.7,5.2c-0.2-0.2-0.5-0.5-0.7-0.7
		c-1,1-1.2,2.2-1.1,3.3c-0.4,0.1-0.7,0.2-1.1,0.4c1,0.2,0.8,0.1,1.9-0.4c0.1,0.2,0.2,0.5,0.4,0.7c-1.1,0.7-0.6,0.1-1.1,1.5
		c0.7-0.4,1.5-0.7,2.2-1.1c-0.7,1.1-0.2,0.9-1.5,1.5c0,0.4,0,0.7,0,1.1c0.7-0.4,1.5-0.7,2.2-1.1c-0.6,1.8,1.1,3.6,1.1,6.7
		c-3.2,1.9-5,2.8-5.6,7.8c-1.5,0.5-3.7-0.3-4.1,1.9c-3-1.3-4-1.3-7.1,0.4c0.4-1.2,0.2-0.6,0.4-1.5c-2.2-0.4-1.4,0.2-3-0.7
		c-0.1,1.2,0,0.9,0.4,2.2c-1.6-0.4-1.2-0.4-2.2-1.1c-0.1,0-0.2,0-0.4,0c0.5,1.1,0,0.4,0.7,1.1c-0.2,0.2-0.5,0.5-0.7,0.7
		c0,0-8.8,2.3-11.1,2.2c0.4-0.1,0.7-0.2,1.1-0.4c-0.1-0.2-0.2-0.5-0.4-0.7c-2.9,0.2-4.8,1.1-7.1,2.2c-3.5-0.5-6.9-1-10.4-1.5
		c-2.7,0.8-4.5,3.5-7.8,4.1c-0.4-0.7-0.7-1.5-1.1-2.2c0,0.5,0,1,0,1.5c-1.5,0-3,0-4.5,0c-0.4,1.5-1.3,0.2-4.5,1.1
		c0.1-0.2,0.2-0.5,0.4-0.7c-0.2-0.2-22.3-0.4-22.3-0.4c-0.5-0.9-1-1.7-1.5-2.6c-1.9,1.1-2.4,0-3.3,1.1c-0.1,0-0.2,0-0.4,0
		c-1.3-2-6.6,3.2-11.5,2.6c-4.2-0.5-22.3,0.6-21.9,9.7c-0.1,1.9,0.1,0.9,1.5,1.9c-1.3,1.8,0.1,0.4-1.1,2.2c1.6,1.1,3.2,2.2,4.8,3.3
		c-0.2,1.1-0.5,2.2-0.7,3.3c5.9,1.7,7.2,3.1,13,2.6c1.4,0.4,2.6,2.6,4.5,2.6c-0.4,0.6-0.7,1.2-1.1,1.9c0.9,0.4,1.7,0.7,2.6,1.1
		c1.7-2.1,3-2.3,6.3-1.9c0.2-1.1,0.5-2.2,0.7-3.3c5.7-4.2,10.3,1.3,19.7,0c5.8-0.8,11.3-1.4,16.9-1.8c0.1,0.1,0.1,0.2,0.2,0.3
		c0.1-0.1,0.1-0.2,0.2-0.3c7.6-0.6,15.3-1.1,23.6-1.9c-0.4-0.2-0.7-0.5-1.1-0.7c0.7-0.6,1.5-1.2,2.2-1.9c1.2-0.1,2.5-0.2,3.7-0.4
		c-0.2,0.2-0.5,0.5-0.7,0.7c3.5,1.8,17.4-2.7,20.4-3.3c-0.5,0.5-1,1-1.5,1.5c0,0.1,0,0.2,0,0.4c4.7-0.1,10.1,4.2,8.2,9.3
		c-0.4,1.1-2.1,1.2-1.5,3.7c0.9,3.4,2,7.7,2.2,11.9c0.5-0.1,1-0.2,1.5-0.4c-0.9,4.6-1.3,5.3,1.1,9.3c-1,0.7-0.6,0.5-1.9,0.4
		c-0.6,0.9-0.2,0.4,0.7,0.7c0.1,3.1-3.3,16.8,3,18.6c-1.6,1.2-2.2,2-2.6,4.5c0.8-0.7,0.4-0.1,0.7-1.5c1.1,1.3,0.8,2,3.3,3
		c1.4,8.4-4.4,11.9-7.1,20.1c1.7,1.4,4.5,1.6,6.3,3c-0.9,0.1-1.7,0.2-2.6,0.4c-0.6,4.9,2.2,10.5,0.7,16.4c-1.5,6.2-4,6.8-2.6,14.1
		c-0.5-0.2-1-0.5-1.5-0.7c0.6,2.3,0.8,1,0.7,2.2c0.2,0.2,0.5,0.5,0.7,0.7c0.1-0.2,0.2-0.5,0.4-0.7c0.9-1.3,0.4-0.8,0-2.2
		c0.2,0,0.5,0,0.7,0c0.9,2.6,1.6,5.8,3,7.4c0.9,0.4,1.7,0.7,2.6,1.1c1.8,2.8-0.6,4.3,0.4,5.6c-0.6,1.2,0.2,0.4-1.1,0.7
		c0,0.4,0,0.7,0,1.1c0.5,0.1,1,0.2,1.5,0.4c0.3-1.7,0.1-1.4,1.1-2.2c0.2,1,0.6,1.1,1.5,2.2c-0.5-0.1-1-0.2-1.5-0.4c0,1,0,2,0,3
		c0.5,0.2,1,0.5,1.5,0.7c0.1,0,0.2,0,0.4,0c0.9-2.1,1.6-1.9,1.9-3.7c1.1,0.5,2.2,1,3.3,1.5c1.4-0.9,1.5-0.9,1.5-3.3
		c1.8-0.5,1.3-0.1,3,1.1c1.4-2.6,6.2-3.7,7.8-6.3c1.3-2.1-0.8-3.3,1.1-4.8c-0.2-1-0.7-1.6-1.5-2.2c0-0.4,0-0.7,0-1.1
		c0.4,0.4,0.7,0.7,1.1,1.1c1.2-4,0.6-9,1.1-11.9c-1.4,0.2-1.1,0.3-1.9-1.1c-3.6-7.9,3-13.4,1.5-21.6c-3.3-18.3-7.6-46.3-10.4-63.9
		c-0.8,0.7-0.3,0-0.7,1.1c-0.1,0-0.2,0-0.4,0c1.1-8.7,8.1-12.9,11.1-20.8c1.3-0.3,7.8,0.4,8.5-0.7c1.3,0.8,1.8,1.6,3,4.1
		c5.4-1,7.1-2.9,12.3-4.5c1.1,1.1,2.4,1.9,3,4.1c0.5-0.1,1-0.2,1.5-0.4c1.3,0.2,0.9,0.3,1.9-0.4c-0.4,0-0.7,0-1.1,0
		c0.1-0.6,0.2-1.2,0.4-1.9c3.4,0.4,4.9,0,8.2-0.7c0.5,4.5,25,0.8,36,0.7c2.2-0.1,4.5-0.2,6.7-0.4c2.6,0.9,5.4,2.7,7.8,2.6
		c-0.2,0.2-0.5,0.5-0.7,0.7c0.2,0.2,28,0.3,29,0c-0.1,0.2-0.2,0.5-0.4,0.7c1.7,0.2,3.5,0.5,5.2,0.7c0.4-1.6,0.2-1.5,1.5-2.2
		c0.2,0.9-0.2,0.8,1.1,1.5c0.1-0.7,0.2-1.5,0.4-2.2c0.4,0.1,0.7,0.2,1.1,0.4c-0.4,0.6-0.7,1.2-1.1,1.9c0.9,0.4,3-0.6,5.6-0.4
		c-0.2-0.4-0.5-0.7-0.7-1.1c0-0.1,0-0.2,0-0.4c0.6,0,1.2,0,1.9,0c0.8,1,0.2,0.1,0.4,1.5c1.2-0.6,0.4,0.2,0.7-1.1
		c3.3-0.3,11.2,0.9,14.5,2.6c0.4-0.9,0.9-0.5,0-1.1c1.5-0.8,3-1.9,4.5-3.7c-0.2,0-0.5,0-0.7,0C418.2,296.7,418.7,295.6,419.9,295.1z
		 M354.5,178c-0.1,0.2-0.2,0.5-0.4,0.7c-0.1-0.2-0.2-0.5-0.4-0.7C354,178,354.3,178,354.5,178z M351.5,203.7c0.1,0.5,0.2,1,0.4,1.5
		c-0.1,0-0.2,0-0.4,0C351.5,204.7,351.5,204.2,351.5,203.7z M349.3,226.7c0.1,1,0.2,0.7-0.7,1.5
		C348.8,227.7,349.1,227.2,349.3,226.7z M272.8,211.9c1.1,0.5,0.4,0,1.1,0.7C273.5,212.4,273.1,212.1,272.8,211.9z M327.8,212.6
		c0.1,1.6-0.2,1.4,1.1,3c-6.1,1.6-14.9-1.2-19.7-3c-0.5,0.4-1,0.7-1.5,1.1c0.2,0.2,0.5,0.5,0.7,0.7c-0.9,1.9-8.3,0.9-11.1,0
		c0.2,0.2,0.5,0.5,0.7,0.7c-0.8,1.5-1.2,0.7-2.6,1.5c-0.7-1.2-0.4-0.1,0-1.5c-3-0.6-8.1-0.5-10.4,1.1c-3.8-3.5-4,0.1-7.8-1.9
		c-2.1-1.1-4.9-3.5-8.5-4.8c-0.1-0.2-0.2-0.5-0.4-0.7c0-0.4,0-0.7,0-1.1c0.4,0.5,0.7,1,1.1,1.5c0.4,0,0.7,0,1.1,0
		c-0.3-1.3,0.2-0.7-0.7-1.1c0.6-1.3-0.3-1.1,1.5-1.9c-0.6-0.1-1.2-0.2-1.9-0.4c0.2-2.4-1-2.2-1.5-4.1c0.4-3.6,0.7-7.2,1.1-10.8
		c2.2-0.9,3.8-2.1,6.3-1.5c-0.1-0.5-0.2-1-0.4-1.5c4.6,2.1,4.5-2.3,7.8-3c1.2,0.6,2.5,1.2,3.7,1.9c1.9,0.4,1.3-1.1,2.2-1.5
		c3.4-1.3,8.9-0.1,11.5,0.4c0.1-0.4,0.2-0.7,0.4-1.1c2.8,2,10.4,0.1,11.9,1.9c0.1-0.5,0.2-1,0.4-1.5c3.3,0.7,5.2,1.3,8.5,1.5
		c-0.4,0.4-0.7,0.7-1.1,1.1c3.4-0.1,5.4,0.9,8.2,0.7c2.5,7.4,2,15.8,0.4,23.8C329.8,213,328.6,212.6,327.8,212.6z M332.6,236.8
		c-1.1-0.5-0.4,0-1.1-0.7C331.8,236.3,332.2,236.5,332.6,236.8z M325.2,105.6c-0.1,0.2-0.2,0.5-0.4,0.7c-0.1-0.2-0.2-0.5-0.4-0.7
		C324.7,105.6,324.9,105.6,325.2,105.6z M269.4,107.1c-1.1,0.7-0.3,0.5-1.5,0C268.4,107.1,268.9,107.1,269.4,107.1z M276.8,129.7
		c3.8-1.1,8.7,1.7,11.1,2.2c1.1,0.2,20.6-2.5,22.7-4.8c4.8,3,12.5,7.1,18.2,7.8c0.8,1.4,1.2,2.6,1.1,4.1c0.1,0.4,0.2,0.7,0.4,1.1
		c-1.6-0.4-1.2-0.1-2.6-0.4c-0.3,1.4,1.3,17.2-1.9,19.7c-1.4,1.9-2.1,0.4-3.3,3.7c-4.4,0.8-6.7-0.8-10-1.9c-2.4-0.8-16.8,3-17.1,3.3
		c-1.2,0.3-0.2-0.6-0.7-1.1c-8.8,1.7-10,3.6-20.1,3c0.1-0.4,0.2-0.7,0.4-1.1c-1.1-0.7-1.5-0.5-3.3-0.7c-0.2-1.9,0.3-1.5-1.1-2.2
		c0.5-1.7,0.3-1.5,2.2-1.9c0-0.4,0-0.7,0-1.1c-1.1,0.4-2.2,0.7-3.3,1.1c1.4-5.5-0.2-8.4,1.5-15.2c0-0.1,0-0.2,0-0.4
		c-1,0.1-0.7,0.1-1.9,0.7c-0.3-2.2-0.4-2.7,0.7-4.1c-1-1.2-0.6-0.9-1.9-1.1c0.4-1.3,0-0.8,0.7-1.5c0-0.9,0-1.7,0-2.6
		c-0.2,0.5-0.5,1-0.7,1.5c-0.4-1.4-0.7-2.7-1.1-4.1C272.2,133.2,272.9,130.9,276.8,129.7z M208.1,103.7c-0.1,0.2-0.2,0.5-0.4,0.7
		c-0.1-0.2-0.2-0.5-0.4-0.7C207.6,103.7,207.8,103.7,208.1,103.7z M204.4,100c0.2,0.2,0.5,0.5,0.7,0.7c-0.2,0-0.5,0-0.7,0
		c-0.5,1.1,0,0.4-0.7,1.1c-0.2-0.2-0.5-0.5-0.7-0.7C203.5,100.6,203.9,100.6,204.4,100z M202.5,104.5c-0.1-0.2-0.2-0.5-0.4-0.7
		C202.8,104.2,202.4,104.1,202.5,104.5z M200.7,102.6c-0.4-0.2-0.7-0.5-1.1-0.7C200.7,102.3,200,101.8,200.7,102.6z M195.1,246
		c0.4,0.2,0.7,0.5,1.1,0.7C195.1,246.3,195.8,246.8,195.1,246z M206.6,222.3c0.1-0.2,0.2-0.5,0.4-0.7
		C207.3,222.3,207.4,222,206.6,222.3z M209.2,221.9c-0.1-0.5-0.2-1-0.4-1.5c0.4,0.2,0.7,0.5,1.1,0.7
		C209.7,221.4,209.5,221.6,209.2,221.9z M214.8,219.7c0.4,0,0.7,0,1.1,0C214.8,220,215.7,220.3,214.8,219.7z M223.3,242.7
		c0.4,0,0.7,0,1.1,0C223.6,243.1,224,243.6,223.3,242.7z M244.5,218.9c-6.8,0.4-11.5,0.9-17.1,1.9c0.2-0.4,0.5-0.7,0.7-1.1
		c-0.6,0.2-1.2,0.5-1.9,0.7c0.2-0.7-0.3-0.5,0.7-0.7c0-0.1,0-0.2,0-0.4c-0.5-0.4-1-0.7-1.5-1.1c-0.9,1.3-0.7,1.5-2.2,2.2
		c0.4-0.2,0.7-0.5,1.1-0.7c0,0-11.1-1.2-12.3-1.5c0.4,0.6,0.7,1.2,1.1,1.9c-1.1-0.2-1.4-1.2-3.7-1.5c0,1.3-2.7,2.2-4.5,2.6
		c-0.4-1.3-0.3-1.1-1.1-1.9c-0.8,1-0.4,0.9-0.4,2.6c-1.9-0.2-2.7-1.5-5.9-1.1c-0.2-2.6-1.7-5-3.3-5.2c2.1-3.7-3.3-17,3.3-22.3
		c4.6-7.5,29-1.7,33.8-5.6c1.5,1.3,7.5,3,10.8,2.2c1,1.4,3.5,5,3.7,5.9c-0.6,0-1.2,0-1.9,0c0.4,3.6,1.1,4.5,0.4,7.8
		c1-0.1,0.2,0,1.5-0.4c-0.6,0.5-1.2,1-1.9,1.5c0,0.1,0,0.2,0,0.4C247.7,206.4,246.4,214.1,244.5,218.9z M195.8,193.3
		c0.2-0.4,0.5-0.7,0.7-1.1c0.2,0.1,0.5,0.2,0.7,0.4C196.8,192.8,196.3,193,195.8,193.3z M244.9,199.6c0.1-0.2,0.2-0.5,0.4-0.7
		C245.4,199.7,245.5,199.1,244.9,199.6z M246.4,205.2c-0.2,0-0.5,0-0.7,0c0.1-0.2,0.2-0.5,0.4-0.7
		C246.1,204.7,246.2,204.9,246.4,205.2z M248.6,156.5c-0.3,0.9-0.8,1.9-1.4,2.8c0.2,0.1,0.4,0.1,0.7,0.2c-0.5,0-0.7,0-0.8,0
		c-1.3,1.9-2.9,3.9-3.7,6.3c-3.8,1.1-11.6,2.4-14.9,0.4c-2.2-1.3-1.8-3.4-5.2-4.1c1.1-1.6-11.2,3.4-12.6,4.5
		c-2.1-1.1-4.2-2.2-6.3-3.3c-0.8,0.9-0.7,0.3-1.1,1.9c-0.1,0-0.2,0-0.4,0c-0.7-1-0.4-1.2-1.5-1.9c0,0.5,0,1,0,1.5
		c-0.9,0-1.7,0-2.6,0c-1.9-1.9-6.6-6-6.7-6.3c-2.4-0.9-4.3-14.2-5.2-16.4c0.2-2.1,1.1-2.9,2.6-3.7c3.9-1.9,5.1,1,8.2,0.7
		c4.2-0.4,7.2-2.1,10-3.3c3.1-1.4,7,0.4,9.3-0.4c-0.2,0.4-0.5,0.7-0.7,1.1c0.1,0.4,0.2,0.7,0.4,1.1c0.9,0.2,5-0.5,6.3-2.6
		c6.8,0.1,7.2,1.4,12.3,0c2.7,1.7,4,2.4,7.1,3.3C246.3,140.4,249.1,154.6,248.6,156.5z"/>
	<path class="st1" d="M395.4,370.9c0.5-0.9,0.1-1.5,0.4-3.3c-0.5,0.2-1,0.5-1.5,0.7c0.4-1.4,0.2-2.1,1.1-3c-1.5-1.1-3.5,0-4.8,0.7
		c-3.4-3.5-10.9-13.8-15.6-14.5c-1.5-0.2-3.5,1.9-5.6,1.5c-1.8-1.1-5.5-7.4-5.2-9.3c-3.2-1.2-3.4-1.9-6.7-1.5c-1-1.5-2-3-3-4.5
		c0.4-1.6,0.3-1,1.1-1.9c-1.8-1.8-2.1,0.1-4.1-1.5c-1.9-1.5-1.8-3.7-5.2-5.2c0.1,0.7,0.2,1.5,0.4,2.2c-3.1,0.2-2,1.8-3.7,1.9
		c-0.6,0.6-0.4,0.4,0.4,0.7c-0.5,1.1-2.3,2.1-4.1,3c1,0.8,0.1,0.2,1.5,0.4c-0.4,1.8-1.1,1.1-0.4,1.9c-0.7,0.4-1.5,0.7-2.2,1.1
		c-0.6-0.5-1.2-1-1.9-1.5c0.6,1.3,0.8,1.8,0.7,3c0.6-0.1,1.2-0.2,1.9-0.4c0,0,4.2,8.3,4.8,8.9c-0.6,0.6-2.6,2.2-2.6,2.2
		c-0.5,1.1,2.7,20,4.1,21.9c2.1,2.8,12.4,7.4,13.8,7.1c-0.2,0.5-0.5,1-0.7,1.5c0.6,0.5,1.2,1,1.9,1.5c1.8,0.9,6.8-0.7,7.8-1.1
		c3.3,4.9,11.6,7.3,13,11.1c6.5,0.9,9.8,0.1,17.1-1.9c2.7-3.7,5.5-11.1,3.3-18.2C400.4,372.1,398.9,371,395.4,370.9z"/>
	<path class="st1" d="M171.7,346c0.4-0.4,0.7-0.7,1.1-1.1c-1-1.9-4.8-6.1-8.5-6.7c-0.4,1.1-0.9,0.1-2.6,0c0.2,0.9,0.5,1.7,0.7,2.6
		c-1.9,1-2.5,3.1-4.5,4.1c-1.5,0.2-3,0.5-4.5,0.7c-0.1,0-21.9,27.1-21.9,27.1c0,0.9,0,1.7,0,2.6c2.8,1,3,2.9,6.7,3.3
		c-0.4,0.2-0.7,0.5-1.1,0.7c1.5,1.7,4,2.5,4.5,3.3c1.3-0.6,1.5-1.2,2.2-2.2c-1.6-0.5-0.8,0.3-1.5-1.1c0,0.6,0,1.2,0,1.9
		c-0.5,0-1,0-1.5,0c0.3-3.7,0.5-2.7,2.2-4.5c1.3,1.6,1.6,4.4,4.1,5.9c1.5-1.1,0.2-1.3,3-1.5c-0.1,0.5-0.2,1-0.4,1.5
		c1.4-0.1,2.7-0.2,4.1-0.4c0.5,0.9,1,1.7,1.5,2.6c1.3-0.6,0.7-0.5,1.5-1.5c0.2,0.5,0.5,1,0.7,1.5c3-1.5,5.2-3.8,7.8-5.2
		c1-1.9,1.2-0.8-0.4-2.2c1.2-1.6,1.6-2.2,1.9-4.8c1.4-0.7,1.4-0.1,3.3,0.4c-0.7-1.4,0.2-0.6-1.5-1.1c0.2-0.8,0.6-1,0.7-3
		c0.1,0,0.2,0,0.4,0c0.8,1,0.2,0.1,0.4,1.5c0.1,0,0.2,0,0.4,0c1.2-1,1.7-2.2,1.5-3.7c1,0.1,0.2,0,1.5,0.4c-0.7-1.3-0.4-1-1.9-1.5
		c0.9-1.5,1.1-0.6,2.2-1.9c-0.5-0.4-1-0.7-1.5-1.1c1.2-0.9,2-1.1,2.2-1.1c0.6-0.8,0.6-0.7,0.7-2.2c-0.6,0-1.2,0-1.9,0
		c0.3-0.9,0.1-1.8,1.9-2.2C175.5,353.3,174.2,346.6,171.7,346z"/>
</g>
</svg>
