<?xml version="1.0" encoding="utf-8"?>
<!-- Generator: Adobe Illustrator 24.0.0, SVG Export Plug-In . SVG Version: 6.00 Build 0)  -->
<svg version="1.1" id="NexT" xmlns:svg="http://www.w3.org/2000/svg"
	 xmlns="http://www.w3.org/2000/svg" xmlns:xlink="http://www.w3.org/1999/xlink" x="0px" y="0px" viewBox="0 0 512 512"
	 style="enable-background:new 0 0 512 512;" xml:space="preserve">
<style type="text/css">
	.st0{fill:#040000;}
	.st1{fill-rule:evenodd;clip-rule:evenodd;fill:#FFFFFF;}
</style>
<path class="st0" d="M41.9,169.9c10.8-26.5,27.7-50.9,51.2-72.2c47.7-43.3,113.4-67,177.7-67c8.5,0,17,0.4,25.4,1.2
	c55.4,5.5,109.7,30.6,145,72.9c31.2,37.3,46.4,89.6,46.3,142.8c0,31.4-5.3,63.1-15.5,92.2c-10.2,29-25.3,55.3-44.8,76
	c-21.2,22.5-48.2,39.8-78,51.6c-29.8,11.7-62.2,17.8-94,17.8c-19.7,0-39-2.3-57.4-7C139,463.2,87,424.6,57.9,371.7
	c-12.2-22.1-20.7-46.2-25.7-71c-3.5-17.4-5.3-34.7-5.3-51.5C26.9,221.5,31.7,194.8,41.9,169.9"/>
<path class="st0" d="M29.4,164.8c-10.9,26.6-16.1,55.1-16.1,84.5c0,17.8,1.9,35.9,5.6,54.2c5.2,26.1,14.2,51.4,27.1,74.8
	c31.1,56.4,86.2,97.1,148.5,113.1c19.5,5,40,7.5,60.8,7.5c33.5,0,67.5-6.4,98.9-18.8c31.4-12.4,60.1-30.8,82.9-54.9
	c21-22.3,37-50.3,47.7-80.8c10.7-30.5,16.2-63.7,16.2-96.6c0-55.7-15.7-110.9-49.5-151.4c-38-45.6-95.5-71.9-154-77.7
	c-8.9-0.9-17.8-1.3-26.7-1.3C203.2,17.3,134.5,42,84,87.8C59,110.3,41,136.5,29.4,164.8"/>
<g>
	<path class="st1" d="M428.8,297.1c-1.3-8-5.6-10-4.3-20.4c-0.5,0.3-1,0.5-1.6,0.8c-0.1,0.4-0.3,0.8-0.4,1.2
		c-0.3-0.9-0.5-1.8-0.8-2.7c-0.5,0.4-1,0.8-1.6,1.2c-0.9,0.2-0.3,0.3-0.8-0.4c-0.1,0.7-0.3,1.3-0.4,2c-0.1,0-0.3,0-0.4,0
		c-0.1-0.7-0.3-1.3-0.4-2c-1.7,0.5-1.1,0.7-2.7,0c-0.1,0.1-0.3,0.3-0.4,0.4c-0.1,0.4-0.3,0.8-0.4,1.2c0.5,0.5,1,1,1.6,1.6
		c-2.1-0.7-1-1.5-2.7-2.7c-0.3-0.3-0.5-0.5-0.8-0.8c0.1,0.7,0.3,1.3,0.4,2c-0.1,0-0.3,0-0.4,0c-0.3-0.3-0.5-0.5-0.8-0.8
		c0.5-1.3,0.5-1.1,1.2-2c-4.8-0.3-10.9-5.4-14.9-2.7c-2.8,1.9-15.4,8.3-20.8,5.9c-0.8-0.9-1.6-1.8-2.4-2.7c-6.3-3.5-16.5,2.3-21.6,0
		c-2.6-1.2-7.5-5.1-11-4.3c-1,0.7-2.1,1.3-3.1,2c-1.3-0.4-2.6-0.8-3.9-1.2c-3.2,0.9-5.1,3.4-8.6,4.3c-6,1.5-19.6-3.1-18.4-9.8
		c-0.3-0.3-0.5-0.5-0.8-0.8c-1.3,1.4-0.7,0.4-0.4,2.4c-2.1-0.7-4.2-1.3-6.3-2c-0.9,1.2-0.5,0.9,0,2.4c-0.8-0.1-1.6-0.3-2.4-0.4
		c-0.4,2.2-0.8,4.4-1.2,6.7c-6.6-2.5-9,1.5-16.9,3.1c-5.3,1.1-6-2.4-8.6-2.7c-3.7-2.8-1.8-6.8-4.3-9.8c-0.9-1.9,0.1-1-2-0.8
		c0.1-0.1,0.3-0.3,0.4-0.4c0,0-0.8-10.6-2.4-11.8c1.8-1.4,1.6-3.7,2-5.9c0.2-1.1,0.2-0.3-0.4-1.2c1-3.7,9.8-8.9,12.9-5.1
		c0.1-0.5,0.3-1,0.4-1.6c1.4,0.7,2.9,1.3,4.3,2c-0.3,0.8,0.2,0.2-0.4,0.8c0.5,1.7,0,1.3,1.6,0.8c-0.1,0.5-0.3,1-0.4,1.6
		c1.3-0.1,2.6-0.3,3.9-0.4c0.9-1.5,1.6-2.4,1.6-3.9c1.4-0.6,1.8-0.1,2.4-0.8c1.9,0.5,1.5,0,2,2c1.2-0.8,0.8-0.2,1.2-2
		c1.6,0.9,1.7,1,3.5,0.4c0.3,0.1,0.5,0.3,0.8,0.4c-0.4,0.3-0.8,0.5-1.2,0.8c0,0.4,0,0.8,0,1.2c1.9-0.6,2.1-0.7,3.9,0
		c-0.4-1.1,0.2-0.9-1.6-1.6c0.4-0.3,0.8-0.5,1.2-0.8c5.8,2,17.5-3.6,24.3,1.2c1.2-1.5,0.9-1.5,2.7-1.6c0.4-1.2,0.4,1.1,0.4,1.2
		c2.7-1.3,5.2-2.2,8.6-3.5c0.7-0.4,1.5-2.2,3.1-2.7c2.6-0.9,5.7,0.2,8.2-0.8c0.3,0.5,0.5,1,0.8,1.6c0.4,0,0.8,0,1.2,0
		c0-1.3-0.2-1.6-0.8-3.1c1.2-0.3,2.4-0.5,3.5-0.8c-0.4-0.7-0.8-1.3-1.2-2c5.7-5.2,5.7-14.1,1.6-20c0.8-0.6,0.5-0.5,2-0.8
		c-0.7-2.5-0.5-1.9,1.2-4.3c-0.4,0-0.8,0-1.2,0c0.6-1.4,1.1-0.6,2.4-2c0.1-0.3-0.6-4.4-0.8-5.1c0-0.1,0-0.3,0-0.4
		c0.5,0.3,1,0.5,1.6,0.8c-0.7-3.6-0.5-2.2,0.4-5.5c-0.5,0.1-1,0.3-1.6,0.4c-0.1-1.2,5.5-13.7,5.5-13.7c-0.4-1.1-3-5.4-4.3-7.4
		c0.8-0.8,1.6-1.6,2.4-2.4c-0.8,0.1-1.6,0.3-2.4,0.4c1.4-2.6,4.5-8.7,5.1-11.8c-0.1,0-0.3,0-0.4,0c-0.8,1-0.2,0.2-0.4,1.2
		c-2.6-2.3-1.9-4.3-3.5-8.2c1.8-0.4,1.2,0.1,2-1.2c-0.4,0.1-0.8,0.3-1.2,0.4c2.1-4.3,1.8-3.7,1.6-9c-1.7-0.5-0.7-1-2,0.4
		c-0.3-1.2-0.7-1,1.2-1.6c-0.7-2-2.3-5.2-3.5-6.7c3.2-1.9,6.2-4.4,7.1-10.6c-2.3-2.1-10.9-11.7-11-12.5c-0.6-1.6-0.6-2.2-1.6-0.8
		c-0.4,0-0.8,0-1.2,0c0.4-0.7,0.8-1.3,1.2-2c-2-0.5-2.7-3-4.3-1.6c-0.4-0.5-0.8-1-1.2-1.6c0.4,0.3,0.8,0.5,1.2,0.8
		c-0.3-0.5-0.5-1-0.8-1.6c-1,0.6-1.2-0.1-0.8-0.8c-0.4-0.4-0.8-0.8-1.2-1.2c-0.5,0.6-1,1.3-1.5,1.9c0,0,0,0,0,0c0,0,0,0,0,0
		c0,0-0.2-0.1-0.4,0c-1.6-0.8-0.6,0.2-0.8-1.6c-0.7,0.5-0.7,0.9-1.2,1.6c-0.4-0.9-0.8-1.8-1.2-2.7c0-0.1,0-0.3,0-0.4
		c1,0.1,0.5,0,1.6,0.4c-0.9-1.2-3.3-1.3-5.1-2c0.1,0.7,0.3,1.3,0.4,2c-1.4-0.8-1.2-0.4-1.6-2.4c-0.9-0.3-1.8-0.5-2.7-0.8
		c-0.1,0.5-0.3,1-0.4,1.6c-3.7-1-3.3-2.9-7.1-2.4c0.3-0.3,0.5-0.5,0.8-0.8c-1.2-0.1-5.1,2.7-8.2,3.1c-5.6,0.8-12.5-1.9-16.5-3.5
		c-3.8-1.6-14.2,1.1-19.6-0.8c-2.2-0.8-11.5,4.3-14.1,3.1c-0.1,0.7-0.3,1.3-0.4,2c-3.1-0.1-6.3-0.3-9.4-0.4c0.3-0.5,0.5-1,0.8-1.6
		c-2.7-0.5-17.8,5.5-19.6-3.1c-1.7,1.7-3.4,3.4-5.1,5.1c-2.6,1.2-8.9,0.4-12.1,1.6c-0.8-1.5-0.5-2.1,0-3.1c-0.8-0.8-1.6-1.6-2.4-2.4
		c-1.1,1.1-0.7,0.6-0.8,2c-1.3-1-2.6-2.1-3.9-3.1c-0.1,0.5-0.3,1-0.4,1.6c-0.1,0-0.3,0-0.4,0c0.3-0.8,0.5-1.6,0.8-2.4
		c-2-0.4-3.9-0.8-5.9-1.2c0.6,1.3-0.8,1-2.4,1.2c0.4,0.5,0.8,1,1.2,1.6c-2.5-1.3-3.1-2.3-4.7-1.2c0-0.9,0-1.8,0-2.7
		c-3.7-0.1-3.5,1.1-7.8,0.8c0.3,0.3,0.5,0.5,0.8,0.8c-0.7,1.3-1.3,1.1-2.4,2c0.8,0.4,1.6,0.8,2.4,1.2c-1.9,3-4.4,1.6-8.2,0.8
		c-0.1,0.4-0.3,0.8-0.4,1.2c0,0.1,0,0.3,0,0.4c1.2-0.5,0.5,0,1.2-0.8c0.4,0,0.8,0,1.2,0c-0.8,2.5-1.3,1.1-3.1,2.4
		c-0.3-0.5-0.5-1-0.8-1.6c-2.4,0.9-2.7,2.9-5.9,3.1c0.3,0.1,0.5,0.3,0.8,0.4c-2,1.5-5.6-0.6-8.2,0.8c0-0.7,0-1.3,0-2
		c-4.5,0.8-5.3,4.3-9,5.5c-2.6,0.9-6.5,1.1-10.2,3.1c-2.5,1.4-3.1,4.2-6.3,5.1c0.5,1.6,1.3,1.5,1.6,2.4c0.5,1.9-3.5,9-3.5,9
		c0.1,0.3,0.3,0.5,0.4,0.8c0.7,1.8,0.5,1.2,0.4,4.3c0.7-0.1,1.3-0.3,2-0.4c-0.1,1.7,3.8,5.7,3.1,8.6c0.1,1.3-1.2,1.8-2,3.5
		c-0.9,1.6,2.4,7.4,2.7,11c-0.7,0.7-1.3,1.3-2,2c2.3,4.7,1.9,9.9,4.3,11c-0.7,2.2-1.4,1.5-2,3.9c-0.9,1.1-0.3,0.3,0.8,1.2
		c-0.4,0.1-0.8,0.3-1.2,0.4c0.9,0.7,1.1,0.7,2.7,0.8c-0.3,1.4-0.5,2.9-0.8,4.3c-0.5-0.3-1-0.5-1.6-0.8c0.2,1.9,0.1,1.4,1.6,2.7
		c0,0.1,0,0.3,0,0.4c-1,0.3-1,0-2,0.8c0.7,1,0.3,0,0,1.2c1.9,2.1,4,4.6,5.5,6.3c-0.5,3.1-1.7,3.6-2.7,5.9c-1.1,1.7-0.3,2.3,0.8,4.7
		c-0.9,0.1-1.8,0.3-2.7,0.4c1.6,1.1,1.6,0.7,3.1,0.4c-0.3,0.8-0.5,1.6-0.8,2.4c0.8,0.9,0.5,0.8,2,1.2c0,0.1,0,0.3,0,0.4
		c-2.2,1.6-3.9-1-4.7,2.7c0.8,0,1.6,0,2.4,0c-0.1,0.9-0.3,1.8-0.4,2.7c0.9,0.1,1.8,0.3,2.7,0.4c-0.7,2.1,0.7,8,1.6,11.8
		c-0.8,0.1-1.6,0.3-2.4,0.4c0.1,1.4,0.3,2.9,0.4,4.3c1.2,0.6,2,0.9,3.5,0.4c0,0.1,0,0.3,0,0.4c-1.4,4.7,2.5,2.3,3.5,4.3
		c1.5,2.9-0.8,5.2-0.4,7.4c1.2,1.3,7.1,1.9,8.6,1.6c0.4,0.9,0.8,1.8,1.2,2.7c-1.7,0-3.4,0-5.1,0c-0.3,0-0.5,0-0.8,0
		c1.6,4.1,6.6,2.8,7.4,6.3c2.3-0.5,0.5-1.5,2.4-0.4c0.1-0.5,0.3-1,0.4-1.6c1.2-0.1,5.6,1.3,7.8,2.4c0.3-0.5,0.5-1,0.8-1.6
		c0.8,0.4,1.6,0.8,2.4,1.2c-0.5,0-1,0-1.6,0c0.7,0.8,1.1,0.9,2.4,1.2c0-0.8,0-1.6,0-2.4c0.8,0.4,2.2,2.6,3.5,0
		c0.6,0.8,0.5,0.5,0.8,2c1.6-1.6,1.9-1.7,1.2-3.5c0.9,0.3,1.8,0.5,2.7,0.8c0.5-1.3,0.4-0.4-0.4-2c2.1-0.1,5.2,2.5,7.8,3.5
		c1.7-0.4,1.1-0.1,2-1.2c-0.5-0.4-1-0.8-1.6-1.2c5.5,0.6,17.2,0,18-3.1c5.1,0.9,6.1,1.9,11.8,2.4c0.5,0.9,0.4,1,1.2,1.6
		c-0.6,2.1-0.2,1.3-1.6,1.6c0.1,0.5,0.3,1,0.4,1.6c1.2,0.5,2.4,1,3.5,1.6c-0.2,2.7-0.2,3.6,0.8,5.5c-0.3-0.3-0.5-0.5-0.8-0.8
		c-1,1.1-1.3,2.3-1.2,3.5c-0.4,0.1-0.8,0.3-1.2,0.4c1.1,0.3,0.9,0.1,2-0.4c0.1,0.3,0.3,0.5,0.4,0.8c-1.2,0.8-0.7,0.1-1.2,1.6
		c0.8-0.4,1.6-0.8,2.4-1.2c-0.7,1.2-0.2,0.9-1.6,1.6c0,0.4,0,0.8,0,1.2c0.8-0.4,1.6-0.8,2.4-1.2c-0.6,1.9,1.1,3.8,1.2,7.1
		c-3.3,2-5.2,3-5.9,8.2c-1.6,0.5-3.9-0.3-4.3,2c-3.2-1.4-4.2-1.4-7.4,0.4c0.5-1.2,0.3-0.6,0.4-1.6c-2.4-0.4-1.5,0.2-3.1-0.8
		c-0.1,1.2,0,0.9,0.4,2.4c-1.7-0.4-1.3-0.5-2.4-1.2c-0.1,0-0.3,0-0.4,0c0.5,1.2,0,0.5,0.8,1.2c-0.3,0.3-0.5,0.5-0.8,0.8
		c0,0-9.3,2.4-11.8,2.4c0.4-0.1,0.8-0.3,1.2-0.4c-0.1-0.3-0.3-0.5-0.4-0.8c-3.1,0.2-5.1,1.2-7.4,2.4c-3.7-0.5-7.3-1-11-1.6
		c-2.9,0.9-4.8,3.7-8.2,4.3c-0.4-0.8-0.8-1.6-1.2-2.4c0,0.5,0,1,0,1.6c-1.6,0-3.1,0-4.7,0c-0.4,1.6-1.4,0.3-4.7,1.2
		c0.1-0.3,0.3-0.5,0.4-0.8c-0.2-0.2-23.5-0.4-23.5-0.4c-0.5-0.9-1-1.8-1.6-2.7c-2,1.1-2.6,0-3.5,1.2c-0.1,0-0.3,0-0.4,0
		c-1.3-2.1-6.9,3.4-12.1,2.7c-4.4-0.5-23.6,0.6-23.1,10.2c-0.1,2,0.1,0.9,1.6,2c-1.4,1.9,0.1,0.4-1.2,2.4c1.7,1.2,3.4,2.4,5.1,3.5
		c-0.3,1.2-0.5,2.4-0.8,3.5c6.3,1.8,7.5,3.2,13.7,2.7c1.5,0.4,2.8,2.8,4.7,2.7c-0.4,0.7-0.8,1.3-1.2,2c0.9,0.4,1.8,0.8,2.7,1.2
		c1.7-2.2,3.2-2.4,6.7-2c0.3-1.2,0.5-2.4,0.8-3.5c6-4.4,10.9,1.4,20.8,0c6.1-0.9,11.9-1.4,17.9-1.9c0.1,0.1,0.1,0.2,0.2,0.3
		c0.1-0.1,0.1-0.2,0.2-0.4c8-0.6,16.1-1.1,24.9-2c-0.4-0.3-0.8-0.5-1.2-0.8c0.8-0.7,1.6-1.3,2.4-2c1.3-0.1,2.6-0.3,3.9-0.4
		c-0.3,0.3-0.5,0.5-0.8,0.8c3.7,1.9,18.4-2.9,21.6-3.5c-0.5,0.5-1,1-1.6,1.6c0,0.1,0,0.3,0,0.4c4.9-0.1,10.6,4.4,8.6,9.8
		c-0.4,1.1-2.2,1.3-1.6,3.9c0.9,3.6,2.1,8.2,2.4,12.5c0.5-0.1,1-0.3,1.6-0.4c-0.9,4.9-1.3,5.6,1.2,9.8c-1.1,0.8-0.7,0.5-2,0.4
		c-0.6,0.9-0.2,0.4,0.8,0.8c0.1,3.3-3.5,17.7,3.1,19.6c-1.6,1.3-2.3,2.1-2.7,4.7c0.8-0.8,0.4-0.1,0.8-1.6c1.2,1.3,0.8,2.1,3.5,3.1
		c1.5,8.8-4.7,12.6-7.4,21.2c1.8,1.5,4.7,1.7,6.7,3.1c-0.9,0.1-1.8,0.3-2.7,0.4c-0.7,5.2,2.3,11.1,0.8,17.2
		c-1.6,6.5-4.2,7.1-2.7,14.9c-0.5-0.3-1-0.5-1.6-0.8c0.6,2.4,0.9,1,0.8,2.4c0.3,0.3,0.5,0.5,0.8,0.8c0.1-0.3,0.3-0.5,0.4-0.8
		c1-1.3,0.5-0.8,0-2.4c0.3,0,0.5,0,0.8,0c1,2.8,1.7,6.1,3.1,7.8c0.9,0.4,1.8,0.8,2.7,1.2c1.9,3-0.7,4.6,0.4,5.9
		c-0.7,1.2,0.2,0.5-1.2,0.8c0,0.4,0,0.8,0,1.2c0.5,0.1,1,0.3,1.6,0.4c0.3-1.8,0.1-1.5,1.2-2.4c0.2,1.1,0.6,1.1,1.6,2.4
		c-0.5-0.1-1-0.3-1.6-0.4c0,1,0,2.1,0,3.1c0.5,0.3,1,0.5,1.6,0.8c0.1,0,0.3,0,0.4,0c1-2.2,1.7-2,2-3.9c1.2,0.5,2.4,1,3.5,1.6
		c1.5-1,1.5-1,1.6-3.5c1.9-0.5,1.4-0.1,3.1,1.2c1.4-2.7,6.6-3.9,8.2-6.7c1.3-2.2-0.9-3.4,1.2-5.1c-0.3-1.1-0.8-1.7-1.6-2.4
		c0-0.4,0-0.8,0-1.2c0.4,0.4,0.8,0.8,1.2,1.2c1.2-4.3,0.7-9.5,1.2-12.5c-1.5,0.2-1.2,0.3-2-1.2c-3.8-8.3,3.1-14.1,1.6-22.7
		c-3.5-19.3-8-48.8-11-67.4c-0.8,0.7-0.3,0-0.8,1.2c-0.1,0-0.3,0-0.4,0c1.1-9.2,8.6-13.6,11.8-21.9c1.4-0.3,8.2,0.4,9-0.8
		c1.4,0.8,1.9,1.7,3.1,4.3c5.7-1.1,7.5-3,12.9-4.7c1.2,1.2,2.5,2,3.1,4.3c0.5-0.1,1-0.3,1.6-0.4c1.3,0.2,0.9,0.3,2-0.4
		c-0.4,0-0.8,0-1.2,0c0.1-0.7,0.3-1.3,0.4-2c3.6,0.4,5.1-0.1,8.6-0.8c0.6,4.7,26.3,0.8,38,0.8c2.4-0.1,4.7-0.3,7.1-0.4
		c2.7,0.9,5.7,2.9,8.2,2.7c-0.3,0.3-0.5,0.5-0.8,0.8c0.2,0.2,29.5,0.3,30.6,0c-0.1,0.3-0.3,0.5-0.4,0.8c1.8,0.3,3.7,0.5,5.5,0.8
		c0.4-1.7,0.2-1.6,1.6-2.4c0.2,0.9-0.2,0.8,1.2,1.6c0.1-0.8,0.3-1.6,0.4-2.4c0.4,0.1,0.8,0.3,1.2,0.4c-0.4,0.7-0.8,1.3-1.2,2
		c1,0.4,3.2-0.7,5.9-0.4c-0.3-0.4-0.5-0.8-0.8-1.2c0-0.1,0-0.3,0-0.4c0.7,0,1.3,0,2,0c0.8,1.1,0.2,0.1,0.4,1.6
		c1.2-0.7,0.5,0.2,0.8-1.2c3.5-0.3,11.8,0.9,15.3,2.7c0.5-0.9,1-0.5,0-1.2c1.6-0.8,3.2-2,4.7-3.9c-0.3,0-0.5,0-0.8,0
		C427,298.8,427.5,297.7,428.8,297.1z M359.8,173.7c-0.1,0.3-0.3,0.5-0.4,0.8c-0.1-0.3-0.3-0.5-0.4-0.8
		C359.3,173.7,359.6,173.7,359.8,173.7z M356.7,200.7c0.1,0.5,0.3,1,0.4,1.6c-0.1,0-0.3,0-0.4,0
		C356.7,201.8,356.7,201.2,356.7,200.7z M354.3,225c0.1,1.1,0.2,0.7-0.8,1.6C353.8,226.1,354.1,225.5,354.3,225z M273.6,209.3
		c1.2,0.5,0.5,0,1.2,0.8C274.4,209.9,274,209.6,273.6,209.3z M331.6,210.1c0.1,1.7-0.2,1.5,1.2,3.1c-6.4,1.7-15.8-1.3-20.8-3.1
		c-0.5,0.4-1,0.8-1.6,1.2c0.3,0.3,0.5,0.5,0.8,0.8c-0.9,2-8.8,1-11.8,0c0.3,0.3,0.5,0.5,0.8,0.8c-0.8,1.6-1.3,0.7-2.7,1.6
		c-0.8-1.3-0.4-0.1,0-1.6c-3.2-0.6-8.6-0.6-11,1.2c-4-3.7-4.2,0.2-8.2-2c-2.2-1.2-5.1-3.7-9-5.1c-0.1-0.3-0.3-0.5-0.4-0.8
		c0-0.4,0-0.8,0-1.2c0.4,0.5,0.8,1,1.2,1.6c0.4,0,0.8,0,1.2,0c-0.3-1.4,0.2-0.7-0.8-1.2c0.6-1.3-0.3-1.1,1.6-2
		c-0.7-0.1-1.3-0.3-2-0.4c0.2-2.5-1-2.4-1.6-4.3c0.4-3.8,0.8-7.6,1.2-11.4c2.4-0.9,4.1-2.2,6.7-1.6c-0.1-0.5-0.3-1-0.4-1.6
		c4.8,2.3,4.8-2.5,8.2-3.1c1.3,0.7,2.6,1.3,3.9,2c2,0.4,1.4-1.2,2.4-1.6c3.6-1.4,9.4-0.1,12.1,0.4c0.1-0.4,0.3-0.8,0.4-1.2
		c2.9,2.2,10.9,0.1,12.5,2c0.1-0.5,0.3-1,0.4-1.6c3.5,0.7,5.5,1.3,9,1.6c-0.4,0.4-0.8,0.8-1.2,1.2c3.6-0.1,5.7,0.9,8.6,0.8
		c2.7,7.8,2.1,16.7,0.4,25.1C333.7,210.5,332.5,210.1,331.6,210.1z M336.7,235.6c-1.2-0.5-0.5,0-1.2-0.8
		C335.9,235.1,336.3,235.3,336.7,235.6z M328.9,97.3c-0.1,0.3-0.3,0.5-0.4,0.8c-0.1-0.3-0.3-0.5-0.4-0.8
		C328.3,97.3,328.6,97.3,328.9,97.3z M270.1,98.8c-1.1,0.7-0.3,0.5-1.6,0C269,98.8,269.6,98.8,270.1,98.8z M277.9,122.7
		c4-1.2,9.2,1.8,11.8,2.4c1.2,0.2,21.8-2.6,23.9-5.1c5,3.1,13.2,7.5,19.2,8.2c0.9,1.5,1.3,2.7,1.2,4.3c0.1,0.4,0.3,0.8,0.4,1.2
		c-1.6-0.4-1.2-0.1-2.7-0.4c-0.3,1.5,1.3,18.2-2,20.8c-1.5,2-2.2,0.4-3.5,3.9c-4.6,0.9-7.1-0.8-10.6-2c-2.5-0.8-17.8,3.2-18,3.5
		c-1.2,0.3-0.2-0.6-0.8-1.2c-9.3,1.8-10.6,3.8-21.2,3.1c0.1-0.4,0.3-0.8,0.4-1.2c-1.1-0.8-1.6-0.5-3.5-0.8c-0.2-2,0.3-1.6-1.2-2.4
		c0.6-1.8,0.3-1.6,2.4-2c0-0.4,0-0.8,0-1.2c-1.2,0.4-2.4,0.8-3.5,1.2c1.5-5.8-0.2-8.8,1.6-16.1c0-0.1,0-0.3,0-0.4
		c-1,0.1-0.8,0.1-2,0.8c-0.4-2.3-0.4-2.9,0.8-4.3c-1-1.3-0.6-1-2-1.2c0.4-1.4,0-0.8,0.8-1.6c0-0.9,0-1.8,0-2.7
		c-0.3,0.5-0.5,1-0.8,1.6c-0.4-1.4-0.8-2.9-1.2-4.3C273,126.4,273.7,123.9,277.9,122.7z M205.4,95.3c-0.1,0.3-0.3,0.5-0.4,0.8
		c-0.1-0.3-0.3-0.5-0.4-0.8C204.9,95.3,205.2,95.3,205.4,95.3z M201.5,91.4c0.3,0.3,0.5,0.5,0.8,0.8c-0.3,0-0.5,0-0.8,0
		c-0.5,1.2,0,0.5-0.8,1.2c-0.3-0.3-0.5-0.5-0.8-0.8C200.6,92.1,201,92,201.5,91.4z M199.5,96.1c-0.1-0.3-0.3-0.5-0.4-0.8
		C199.9,95.8,199.4,95.7,199.5,96.1z M197.6,94.1c-0.4-0.3-0.8-0.5-1.2-0.8C197.6,93.8,196.9,93.3,197.6,94.1z M191.7,245.4
		c0.4,0.3,0.8,0.5,1.2,0.8C191.7,245.7,192.4,246.2,191.7,245.4z M203.8,220.3c0.1-0.3,0.3-0.5,0.4-0.8
		C204.6,220.3,204.7,220,203.8,220.3z M206.6,219.9c-0.1-0.5-0.3-1-0.4-1.6c0.4,0.3,0.8,0.5,1.2,0.8
		C207.1,219.4,206.9,219.7,206.6,219.9z M212.5,217.6c0.4,0,0.8,0,1.2,0C212.5,218,213.5,218.2,212.5,217.6z M221.5,241.9
		c0.4,0,0.8,0,1.2,0C221.7,242.3,222.1,242.8,221.5,241.9z M243.8,216.8c-7.2,0.4-12.1,1-18,2c0.3-0.4,0.5-0.8,0.8-1.2
		c-0.7,0.3-1.3,0.5-2,0.8c0.2-0.8-0.3-0.5,0.8-0.8c0-0.1,0-0.3,0-0.4c-0.5-0.4-1-0.8-1.6-1.2c-0.9,1.4-0.8,1.5-2.4,2.4
		c0.4-0.3,0.8-0.5,1.2-0.8c0,0-11.7-1.3-12.9-1.6c0.4,0.7,0.8,1.3,1.2,2c-1.1-0.2-1.5-1.2-3.9-1.6c0,1.4-2.8,2.3-4.7,2.7
		c-0.4-1.4-0.3-1.2-1.2-2c-0.9,1-0.5,1-0.4,2.7c-2-0.3-2.8-1.6-6.3-1.2c-0.2-2.7-1.8-5.2-3.5-5.5c2.2-3.9-3.5-17.9,3.5-23.5
		c4.8-8,30.6-1.8,35.7-5.9c1.6,1.4,7.9,3.2,11.4,2.4c1.1,1.5,3.7,5.3,3.9,6.3c-0.7,0-1.3,0-2,0c0.4,3.8,1.1,4.8,0.4,8.2
		c1-0.1,0.2,0,1.6-0.4c-0.7,0.5-1.3,1-2,1.6c0,0.1,0,0.3,0,0.4C247.2,203.6,245.8,211.7,243.8,216.8z M192.5,189.7
		c0.3-0.4,0.5-0.8,0.8-1.2c0.3,0.1,0.5,0.3,0.8,0.4C193.5,189.2,193,189.5,192.5,189.7z M244.2,196.4c0.1-0.3,0.3-0.5,0.4-0.8
		C244.8,196.5,244.9,195.9,244.2,196.4z M245.8,202.3c-0.3,0-0.5,0-0.8,0c0.1-0.3,0.3-0.5,0.4-0.8
		C245.5,201.8,245.7,202,245.8,202.3z M248.1,150.9c-0.3,1-0.8,2-1.5,3c0.2,0.1,0.5,0.1,0.7,0.2c-0.5,0-0.7,0-0.8,0
		c-1.3,2-3.1,4.1-3.9,6.7c-4,1.2-12.3,2.5-15.7,0.4c-2.3-1.4-1.9-3.6-5.5-4.3c1.1-1.6-11.8,3.5-13.3,4.7c-2.2-1.2-4.4-2.4-6.7-3.5
		c-0.9,1-0.7,0.3-1.2,2c-0.1,0-0.3,0-0.4,0c-0.7-1-0.4-1.3-1.6-2c0,0.5,0,1,0,1.6c-0.9,0-1.8,0-2.7,0c-2-2-6.9-6.3-7.1-6.7
		c-2.5-0.9-4.5-14.9-5.5-17.2c0.3-2.3,1.2-3.1,2.7-3.9c4.2-2,5.4,1.1,8.6,0.8c4.5-0.4,7.6-2.2,10.6-3.5c3.3-1.4,7.3,0.5,9.8-0.4
		c-0.3,0.4-0.5,0.8-0.8,1.2c0.1,0.4,0.3,0.8,0.4,1.2c1,0.2,5.3-0.5,6.7-2.7c7.2,0.1,7.6,1.4,12.9,0c2.8,1.8,4.2,2.5,7.4,3.5
		C245.7,133.9,248.7,149,248.1,150.9z"/>
	<path class="st1" d="M402.9,377.1c0.5-1,0.1-1.6,0.4-3.5c-0.5,0.3-1,0.5-1.6,0.8c0.5-1.4,0.2-2.2,1.2-3.1c-1.6-1.1-3.7,0-5.1,0.8
		c-3.5-3.7-11.5-14.5-16.5-15.3c-1.6-0.2-3.7,2-5.9,1.6c-1.9-1.2-5.8-7.8-5.5-9.8c-3.3-1.2-3.6-2-7.1-1.6c-1-1.6-2.1-3.1-3.1-4.7
		c0.5-1.7,0.3-1,1.2-2c-1.9-1.9-2.2,0.1-4.3-1.6c-2-1.6-1.9-3.9-5.5-5.5c0.1,0.8,0.3,1.6,0.4,2.4c-3.2,0.2-2.1,1.9-3.9,2
		c-0.6,0.6-0.4,0.4,0.4,0.8c-0.5,1.2-2.5,2.2-4.3,3.1c1.1,0.8,0.1,0.2,1.6,0.4c-0.4,2-1.2,1.1-0.4,2c-0.8,0.4-1.6,0.8-2.4,1.2
		c-0.7-0.5-1.3-1-2-1.6c0.6,1.4,0.9,1.9,0.8,3.1c0.7-0.1,1.3-0.3,2-0.4c0,0,4.4,8.8,5.1,9.4c-0.7,0.7-2.7,2.4-2.7,2.4
		c-0.5,1.2,2.8,21.1,4.3,23.1c2.2,3,13.1,7.8,14.5,7.4c-0.3,0.5-0.5,1-0.8,1.6c0.7,0.5,1.3,1,2,1.6c1.9,0.9,7.1-0.7,8.2-1.2
		c3.5,5.1,12.3,7.7,13.7,11.8c6.8,0.9,10.3,0.1,18-2c2.9-3.9,5.8-11.8,3.5-19.2C408.2,378.3,406.6,377.1,402.9,377.1z"/>
	<path class="st1" d="M167,350.8c0.4-0.4,0.8-0.8,1.2-1.2c-1-2-5.1-6.5-9-7.1c-0.5,1.2-0.9,0.1-2.7,0c0.3,0.9,0.5,1.8,0.8,2.7
		c-2,1-2.6,3.3-4.7,4.3c-1.6,0.3-3.1,0.5-4.7,0.8c-0.1,0-23.1,28.6-23.1,28.6c0,0.9,0,1.8,0,2.7c3,1,3.1,3.1,7.1,3.5
		c-0.4,0.3-0.8,0.5-1.2,0.8c1.6,1.8,4.2,2.6,4.7,3.5c1.3-0.6,1.6-1.2,2.4-2.4c-1.7-0.5-0.8,0.3-1.6-1.2c0,0.7,0,1.3,0,2
		c-0.5,0-1,0-1.6,0c0.3-3.9,0.6-2.9,2.4-4.7c1.4,1.6,1.7,4.7,4.3,6.3c1.6-1.2,0.2-1.4,3.1-1.6c-0.1,0.5-0.3,1-0.4,1.6
		c1.4-0.1,2.9-0.3,4.3-0.4c0.5,0.9,1,1.8,1.6,2.7c1.3-0.7,0.8-0.5,1.6-1.6c0.3,0.5,0.5,1,0.8,1.6c3.2-1.6,5.5-4,8.2-5.5
		c1-2,1.3-0.9-0.4-2.4c1.3-1.7,1.6-2.3,2-5.1c1.5-0.7,1.4-0.1,3.5,0.4c-0.8-1.4,0.2-0.7-1.6-1.2c0.2-0.8,0.6-1,0.8-3.1
		c0.1,0,0.3,0,0.4,0c0.8,1.1,0.2,0.1,0.4,1.6c0.1,0,0.3,0,0.4,0c1.3-1.1,1.8-2.3,1.6-3.9c1,0.1,0.2,0,1.6,0.4c-0.7-1.4-0.4-1-2-1.6
		c1-1.6,1.2-0.6,2.4-2c-0.5-0.4-1-0.8-1.6-1.2c1.2-1,2.2-1.2,2.4-1.2c0.7-0.8,0.6-0.8,0.8-2.4c-0.7,0-1.3,0-2,0
		c0.3-0.9,0.1-1.9,2-2.4C171,358.5,169.7,351.5,167,350.8z"/>
</g>
<g>
	<path class="st0" d="M-1076.6-363.1c0.7-1.7,1.8-3.3,3.3-4.7c3.1-2.8,7.4-4.4,11.6-4.4c0.6,0,1.1,0,1.7,0.1c3.6,0.4,7.2,2,9.5,4.8
		c2,2.4,3,5.8,3,9.3c0,2.1-0.3,4.1-1,6c-0.7,1.9-1.7,3.6-2.9,5c-1.4,1.5-3.1,2.6-5.1,3.4c-1.9,0.8-4.1,1.2-6.1,1.2
		c-1.3,0-2.5-0.2-3.7-0.5c-3.8-1-7.2-3.5-9.1-7c-0.8-1.4-1.4-3-1.7-4.6c-0.2-1.1-0.3-2.3-0.3-3.4
		C-1077.6-359.7-1077.3-361.4-1076.6-363.1"/>
	<path class="st0" d="M-1077.4-363.4c-0.7,1.7-1,3.6-1,5.5c0,1.2,0.1,2.3,0.4,3.5c0.3,1.7,0.9,3.4,1.8,4.9c2,3.7,5.6,6.3,9.7,7.4
		c1.3,0.3,2.6,0.5,4,0.5c2.2,0,4.4-0.4,6.5-1.2c2-0.8,3.9-2,5.4-3.6c1.4-1.5,2.4-3.3,3.1-5.3c0.7-2,1.1-4.2,1.1-6.3
		c0-3.6-1-7.2-3.2-9.9c-2.5-3-6.2-4.7-10.1-5.1c-0.6-0.1-1.2-0.1-1.7-0.1c-4.4,0-8.9,1.6-12.2,4.6
		C-1075.5-366.9-1076.7-365.2-1077.4-363.4"/>
	<g>
		<path class="st1" d="M-1051.4-354.7c-0.1-0.5-0.4-0.7-0.3-1.3c0,0-0.1,0-0.1,0.1c0,0,0,0.1,0,0.1c0-0.1,0-0.1-0.1-0.2
			c0,0-0.1,0.1-0.1,0.1c-0.1,0,0,0-0.1,0c0,0,0,0.1,0,0.1c0,0,0,0,0,0c0,0,0-0.1,0-0.1c-0.1,0-0.1,0-0.2,0c0,0,0,0,0,0
			c0,0,0,0.1,0,0.1c0,0,0.1,0.1,0.1,0.1c-0.1,0-0.1-0.1-0.2-0.2c0,0,0,0-0.1-0.1c0,0,0,0.1,0,0.1c0,0,0,0,0,0c0,0,0,0-0.1-0.1
			c0-0.1,0-0.1,0.1-0.1c-0.3,0-0.7-0.4-1-0.2c-0.2,0.1-1,0.5-1.4,0.4c-0.1-0.1-0.1-0.1-0.2-0.2c-0.4-0.2-1.1,0.2-1.4,0
			c-0.2-0.1-0.5-0.3-0.7-0.3c-0.1,0-0.1,0.1-0.2,0.1c-0.1,0-0.2-0.1-0.3-0.1c-0.2,0.1-0.3,0.2-0.6,0.3c-0.4,0.1-1.3-0.2-1.2-0.6
			c0,0,0,0-0.1-0.1c-0.1,0.1,0,0,0,0.2c-0.1,0-0.3-0.1-0.4-0.1c-0.1,0.1,0,0.1,0,0.2c-0.1,0-0.1,0-0.2,0c0,0.1-0.1,0.3-0.1,0.4
			c-0.4-0.2-0.6,0.1-1.1,0.2c-0.3,0.1-0.4-0.2-0.6-0.2c-0.2-0.2-0.1-0.4-0.3-0.6c-0.1-0.1,0-0.1-0.1-0.1c0,0,0,0,0,0
			c0,0-0.1-0.7-0.2-0.8c0.1-0.1,0.1-0.2,0.1-0.4c0-0.1,0,0,0-0.1c0.1-0.2,0.6-0.6,0.8-0.3c0,0,0-0.1,0-0.1c0.1,0,0.2,0.1,0.3,0.1
			c0,0.1,0,0,0,0.1c0,0.1,0,0.1,0.1,0.1c0,0,0,0.1,0,0.1c0.1,0,0.2,0,0.3,0c0.1-0.1,0.1-0.2,0.1-0.3c0.1,0,0.1,0,0.2-0.1
			c0.1,0,0.1,0,0.1,0.1c0.1-0.1,0.1,0,0.1-0.1c0.1,0.1,0.1,0.1,0.2,0c0,0,0,0,0.1,0c0,0-0.1,0-0.1,0.1c0,0,0,0.1,0,0.1
			c0.1,0,0.1,0,0.3,0c0-0.1,0-0.1-0.1-0.1c0,0,0.1,0,0.1-0.1c0.4,0.1,1.1-0.2,1.6,0.1c0.1-0.1,0.1-0.1,0.2-0.1c0-0.1,0,0.1,0,0.1
			c0.2-0.1,0.3-0.1,0.6-0.2c0,0,0.1-0.1,0.2-0.2c0.2-0.1,0.4,0,0.5-0.1c0,0,0,0.1,0.1,0.1c0,0,0.1,0,0.1,0c0-0.1,0-0.1-0.1-0.2
			c0.1,0,0.2,0,0.2-0.1c0,0-0.1-0.1-0.1-0.1c0.4-0.3,0.4-0.9,0.1-1.3c0.1,0,0,0,0.1-0.1c0-0.2,0-0.1,0.1-0.3c0,0-0.1,0-0.1,0
			c0-0.1,0.1,0,0.2-0.1c0,0,0-0.3-0.1-0.3c0,0,0,0,0,0c0,0,0.1,0,0.1,0.1c0-0.2,0-0.1,0-0.4c0,0-0.1,0-0.1,0c0-0.1,0.4-0.9,0.4-0.9
			c0-0.1-0.2-0.4-0.3-0.5c0.1-0.1,0.1-0.1,0.2-0.2c-0.1,0-0.1,0-0.2,0c0.1-0.2,0.3-0.6,0.3-0.8c0,0,0,0,0,0c-0.1,0.1,0,0,0,0.1
			c-0.2-0.1-0.1-0.3-0.2-0.5c0.1,0,0.1,0,0.1-0.1c0,0-0.1,0-0.1,0c0.1-0.3,0.1-0.2,0.1-0.6c-0.1,0,0-0.1-0.1,0c0-0.1,0-0.1,0.1-0.1
			c0-0.1-0.1-0.3-0.2-0.4c0.2-0.1,0.4-0.3,0.5-0.7c-0.1-0.1-0.7-0.8-0.7-0.8c0-0.1,0-0.1-0.1-0.1c0,0-0.1,0-0.1,0
			c0,0,0.1-0.1,0.1-0.1c-0.1,0-0.2-0.2-0.3-0.1c0,0-0.1-0.1-0.1-0.1c0,0,0.1,0,0.1,0.1c0,0,0-0.1-0.1-0.1c-0.1,0-0.1,0-0.1-0.1
			c0,0-0.1-0.1-0.1-0.1c0,0-0.1,0.1-0.1,0.1c0,0,0,0,0,0c0,0,0,0,0,0c0,0,0,0,0,0c-0.1-0.1,0,0-0.1-0.1c0,0,0,0.1-0.1,0.1
			c0-0.1-0.1-0.1-0.1-0.2c0,0,0,0,0,0c0.1,0,0,0,0.1,0c-0.1-0.1-0.2-0.1-0.3-0.1c0,0,0,0.1,0,0.1c-0.1-0.1-0.1,0-0.1-0.2
			c-0.1,0-0.1,0-0.2-0.1c0,0,0,0.1,0,0.1c-0.2-0.1-0.2-0.2-0.5-0.2c0,0,0,0,0.1-0.1c-0.1,0-0.3,0.2-0.5,0.2
			c-0.4,0.1-0.8-0.1-1.1-0.2c-0.2-0.1-0.9,0.1-1.3-0.1c-0.1-0.1-0.8,0.3-0.9,0.2c0,0,0,0.1,0,0.1c-0.2,0-0.4,0-0.6,0
			c0,0,0-0.1,0.1-0.1c-0.2,0-1.2,0.4-1.3-0.2c-0.1,0.1-0.2,0.2-0.3,0.3c-0.2,0.1-0.6,0-0.8,0.1c-0.1-0.1,0-0.1,0-0.2
			c-0.1-0.1-0.1-0.1-0.2-0.2c-0.1,0.1,0,0-0.1,0.1c-0.1-0.1-0.2-0.1-0.3-0.2c0,0,0,0.1,0,0.1c0,0,0,0,0,0c0-0.1,0-0.1,0.1-0.2
			c-0.1,0-0.3-0.1-0.4-0.1c0,0.1,0,0.1-0.2,0.1c0,0,0.1,0.1,0.1,0.1c-0.2-0.1-0.2-0.1-0.3-0.1c0-0.1,0-0.1,0-0.2
			c-0.2,0-0.2,0.1-0.5,0.1c0,0,0,0,0.1,0.1c0,0.1-0.1,0.1-0.2,0.1c0.1,0,0.1,0.1,0.2,0.1c-0.1,0.2-0.3,0.1-0.5,0.1c0,0,0,0.1,0,0.1
			c0,0,0,0,0,0c0.1,0,0,0,0.1-0.1c0,0,0.1,0,0.1,0c-0.1,0.2-0.1,0.1-0.2,0.2c0,0,0-0.1-0.1-0.1c-0.2,0.1-0.2,0.2-0.4,0.2
			c0,0,0,0,0.1,0c-0.1,0.1-0.4,0-0.5,0.1c0,0,0-0.1,0-0.1c-0.3,0.1-0.3,0.3-0.6,0.4c-0.2,0.1-0.4,0.1-0.7,0.2
			c-0.2,0.1-0.2,0.3-0.4,0.3c0,0.1,0.1,0.1,0.1,0.2c0,0.1-0.2,0.6-0.2,0.6c0,0,0,0,0,0.1c0,0.1,0,0.1,0,0.3c0,0,0.1,0,0.1,0
			c0,0.1,0.2,0.4,0.2,0.6c0,0.1-0.1,0.1-0.1,0.2c-0.1,0.1,0.2,0.5,0.2,0.7c0,0-0.1,0.1-0.1,0.1c0.1,0.3,0.1,0.6,0.3,0.7
			c0,0.1-0.1,0.1-0.1,0.3c-0.1,0.1,0,0,0.1,0.1c0,0-0.1,0-0.1,0c0.1,0,0.1,0,0.2,0.1c0,0.1,0,0.2-0.1,0.3c0,0-0.1,0-0.1-0.1
			c0,0.1,0,0.1,0.1,0.2c0,0,0,0,0,0c-0.1,0-0.1,0-0.1,0.1c0,0.1,0,0,0,0.1c0.1,0.1,0.3,0.3,0.4,0.4c0,0.2-0.1,0.2-0.2,0.4
			c-0.1,0.1,0,0.2,0.1,0.3c-0.1,0-0.1,0-0.2,0c0.1,0.1,0.1,0,0.2,0c0,0.1,0,0.1-0.1,0.2c0.1,0.1,0,0,0.1,0.1c0,0,0,0,0,0
			c-0.1,0.1-0.3-0.1-0.3,0.2c0.1,0,0.1,0,0.2,0c0,0.1,0,0.1,0,0.2c0.1,0,0.1,0,0.2,0c0,0.1,0,0.5,0.1,0.8c-0.1,0-0.1,0-0.2,0
			c0,0.1,0,0.2,0,0.3c0.1,0,0.1,0.1,0.2,0c0,0,0,0,0,0c-0.1,0.3,0.2,0.1,0.2,0.3c0.1,0.2-0.1,0.3,0,0.5c0.1,0.1,0.5,0.1,0.6,0.1
			c0,0.1,0.1,0.1,0.1,0.2c-0.1,0-0.2,0-0.3,0c0,0,0,0-0.1,0c0.1,0.3,0.4,0.2,0.5,0.4c0.2,0,0-0.1,0.2,0c0,0,0-0.1,0-0.1
			c0.1,0,0.4,0.1,0.5,0.2c0,0,0-0.1,0.1-0.1c0.1,0,0.1,0.1,0.2,0.1c0,0-0.1,0-0.1,0c0,0.1,0.1,0.1,0.2,0.1c0-0.1,0-0.1,0-0.2
			c0,0,0.1,0.2,0.2,0c0,0.1,0,0,0.1,0.1c0.1-0.1,0.1-0.1,0.1-0.2c0.1,0,0.1,0,0.2,0.1c0-0.1,0,0,0-0.1c0.1,0,0.3,0.2,0.5,0.2
			c0.1,0,0.1,0,0.1-0.1c0,0-0.1-0.1-0.1-0.1c0.4,0,1.1,0,1.2-0.2c0.3,0.1,0.4,0.1,0.8,0.2c0,0.1,0,0.1,0.1,0.1c0,0.1,0,0.1-0.1,0.1
			c0,0,0,0.1,0,0.1c0.1,0,0.2,0.1,0.2,0.1c0,0.2,0,0.2,0.1,0.4c0,0,0,0-0.1-0.1c-0.1,0.1-0.1,0.2-0.1,0.2c0,0-0.1,0-0.1,0
			c0.1,0,0.1,0,0.1,0c0,0,0,0,0,0.1c-0.1,0,0,0-0.1,0.1c0.1,0,0.1-0.1,0.2-0.1c0,0.1,0,0.1-0.1,0.1c0,0,0,0.1,0,0.1
			c0.1,0,0.1-0.1,0.2-0.1c0,0.1,0.1,0.2,0.1,0.5c-0.2,0.1-0.3,0.2-0.4,0.5c-0.1,0-0.3,0-0.3,0.1c-0.2-0.1-0.3-0.1-0.5,0
			c0-0.1,0,0,0-0.1c-0.2,0-0.1,0-0.2-0.1c0,0.1,0,0.1,0,0.2c-0.1,0-0.1,0-0.2-0.1c0,0,0,0,0,0c0,0.1,0,0,0.1,0.1c0,0,0,0-0.1,0.1
			c0,0-0.6,0.2-0.8,0.2c0,0,0.1,0,0.1,0c0,0,0,0,0-0.1c-0.2,0-0.3,0.1-0.5,0.2c-0.2,0-0.5-0.1-0.7-0.1c-0.2,0.1-0.3,0.2-0.5,0.3
			c0-0.1-0.1-0.1-0.1-0.2c0,0,0,0.1,0,0.1c-0.1,0-0.2,0-0.3,0c0,0.1-0.1,0-0.3,0.1c0,0,0,0,0-0.1c0,0-1.5,0-1.5,0
			c0-0.1-0.1-0.1-0.1-0.2c-0.1,0.1-0.2,0-0.2,0.1c0,0,0,0,0,0c-0.1-0.1-0.5,0.2-0.8,0.2c-0.3,0-1.5,0-1.5,0.7c0,0.1,0,0.1,0.1,0.1
			c-0.1,0.1,0,0-0.1,0.2c0.1,0.1,0.2,0.2,0.3,0.2c0,0.1,0,0.2-0.1,0.2c0.4,0.1,0.5,0.2,0.9,0.2c0.1,0,0.2,0.2,0.3,0.2
			c0,0-0.1,0.1-0.1,0.1c0.1,0,0.1,0.1,0.2,0.1c0.1-0.1,0.2-0.2,0.4-0.1c0-0.1,0-0.2,0.1-0.2c0.4-0.3,0.7,0.1,1.4,0
			c0.4-0.1,0.8-0.1,1.2-0.1c0,0,0,0,0,0c0,0,0,0,0,0c0.5,0,1.1-0.1,1.6-0.1c0,0-0.1,0-0.1-0.1c0.1,0,0.1-0.1,0.2-0.1
			c0.1,0,0.2,0,0.3,0c0,0,0,0-0.1,0.1c0.2,0.1,1.2-0.2,1.4-0.2c0,0-0.1,0.1-0.1,0.1c0,0,0,0,0,0c0.3,0,0.7,0.3,0.6,0.6
			c0,0.1-0.1,0.1-0.1,0.3c0.1,0.2,0.1,0.5,0.2,0.8c0,0,0.1,0,0.1,0c-0.1,0.3-0.1,0.4,0.1,0.6c-0.1,0,0,0-0.1,0c0,0.1,0,0,0.1,0.1
			c0,0.2-0.2,1.2,0.2,1.3c-0.1,0.1-0.2,0.1-0.2,0.3c0.1-0.1,0,0,0.1-0.1c0.1,0.1,0.1,0.1,0.2,0.2c0.1,0.6-0.3,0.8-0.5,1.4
			c0.1,0.1,0.3,0.1,0.4,0.2c-0.1,0-0.1,0-0.2,0c0,0.3,0.1,0.7,0.1,1.1c-0.1,0.4-0.3,0.5-0.2,1c0,0-0.1,0-0.1-0.1
			c0,0.2,0.1,0.1,0.1,0.2c0,0,0,0,0.1,0.1c0,0,0,0,0-0.1c0.1-0.1,0-0.1,0-0.2c0,0,0,0,0.1,0c0.1,0.2,0.1,0.4,0.2,0.5
			c0.1,0,0.1,0.1,0.2,0.1c0.1,0.2,0,0.3,0,0.4c0,0.1,0,0-0.1,0.1c0,0,0,0.1,0,0.1c0,0,0.1,0,0.1,0c0-0.1,0-0.1,0.1-0.2
			c0,0.1,0,0.1,0.1,0.2c0,0-0.1,0-0.1,0c0,0.1,0,0.1,0,0.2c0,0,0.1,0,0.1,0.1c0,0,0,0,0,0c0.1-0.1,0.1-0.1,0.1-0.3
			c0.1,0,0.2,0.1,0.2,0.1c0.1-0.1,0.1-0.1,0.1-0.2c0.1,0,0.1,0,0.2,0.1c0.1-0.2,0.4-0.3,0.5-0.4c0.1-0.1-0.1-0.2,0.1-0.3
			c0-0.1,0-0.1-0.1-0.2c0,0,0-0.1,0-0.1c0,0,0.1,0.1,0.1,0.1c0.1-0.3,0-0.6,0.1-0.8c-0.1,0-0.1,0-0.1-0.1c-0.2-0.5,0.2-0.9,0.1-1.5
			c-0.2-1.3-0.5-3.2-0.7-4.4c-0.1,0,0,0-0.1,0.1c0,0,0,0,0,0c0.1-0.6,0.6-0.9,0.8-1.4c0.1,0,0.5,0,0.6-0.1c0.1,0.1,0.1,0.1,0.2,0.3
			c0.4-0.1,0.5-0.2,0.8-0.3c0.1,0.1,0.2,0.1,0.2,0.3c0,0,0.1,0,0.1,0c0.1,0,0.1,0,0.1,0c0,0-0.1,0-0.1,0c0,0,0-0.1,0-0.1
			c0.2,0,0.3,0,0.6-0.1c0,0.3,1.7,0.1,2.5,0.1c0.2,0,0.3,0,0.5,0c0.2,0.1,0.4,0.2,0.5,0.2c0,0,0,0-0.1,0.1c0,0,1.9,0,2,0
			c0,0,0,0,0,0.1c0.1,0,0.2,0,0.4,0.1c0-0.1,0-0.1,0.1-0.2c0,0.1,0,0.1,0.1,0.1c0-0.1,0-0.1,0-0.2c0,0,0.1,0,0.1,0
			c0,0-0.1,0.1-0.1,0.1c0.1,0,0.2,0,0.4,0c0,0,0-0.1-0.1-0.1c0,0,0,0,0,0c0,0,0.1,0,0.1,0c0.1,0.1,0,0,0,0.1c0.1,0,0,0,0.1-0.1
			c0.2,0,0.8,0.1,1,0.2c0-0.1,0.1,0,0-0.1c0.1-0.1,0.2-0.1,0.3-0.3c0,0,0,0-0.1,0C-1051.5-354.6-1051.4-354.7-1051.4-354.7z
			 M-1055.9-362.8C-1055.9-362.8-1055.9-362.8-1055.9-362.8C-1055.9-362.8-1055.9-362.8-1055.9-362.8
			C-1055.9-362.8-1055.9-362.8-1055.9-362.8z M-1056.1-361c0,0,0,0.1,0,0.1c0,0,0,0,0,0C-1056.1-361-1056.1-361-1056.1-361z
			 M-1056.2-359.5c0,0.1,0,0-0.1,0.1C-1056.2-359.4-1056.2-359.4-1056.2-359.5z M-1061.5-360.5
			C-1061.4-360.4-1061.5-360.5-1061.5-360.5C-1061.4-360.4-1061.5-360.5-1061.5-360.5z M-1057.7-360.4c0,0.1,0,0.1,0.1,0.2
			c-0.4,0.1-1-0.1-1.4-0.2c0,0-0.1,0.1-0.1,0.1c0,0,0,0,0.1,0.1c-0.1,0.1-0.6,0.1-0.8,0c0,0,0,0,0.1,0.1c-0.1,0.1-0.1,0-0.2,0.1
			c0-0.1,0,0,0-0.1c-0.2,0-0.6,0-0.7,0.1c-0.3-0.2-0.3,0-0.5-0.1c-0.1-0.1-0.3-0.2-0.6-0.3c0,0,0,0,0-0.1c0,0,0-0.1,0-0.1
			c0,0,0.1,0.1,0.1,0.1c0,0,0.1,0,0.1,0c0-0.1,0,0-0.1-0.1c0-0.1,0-0.1,0.1-0.1c0,0-0.1,0-0.1,0c0-0.2-0.1-0.2-0.1-0.3
			c0-0.2,0.1-0.5,0.1-0.7c0.2-0.1,0.3-0.1,0.4-0.1c0,0,0-0.1,0-0.1c0.3,0.1,0.3-0.2,0.5-0.2c0.1,0,0.2,0.1,0.3,0.1
			c0.1,0,0.1-0.1,0.2-0.1c0.2-0.1,0.6,0,0.8,0c0,0,0-0.1,0-0.1c0.2,0.1,0.7,0,0.8,0.1c0,0,0-0.1,0-0.1c0.2,0,0.4,0.1,0.6,0.1
			c0,0-0.1,0.1-0.1,0.1c0.2,0,0.4,0.1,0.6,0.1C-1057.5-361.6-1057.5-361-1057.7-360.4C-1057.6-360.4-1057.6-360.4-1057.7-360.4z
			 M-1057.4-358.8C-1057.4-358.8-1057.4-358.8-1057.4-358.8C-1057.4-358.8-1057.4-358.8-1057.4-358.8z M-1057.9-367.8
			C-1057.9-367.8-1057.9-367.8-1057.9-367.8C-1057.9-367.8-1057.9-367.8-1057.9-367.8C-1057.9-367.8-1057.9-367.8-1057.9-367.8z
			 M-1061.7-367.7c-0.1,0,0,0-0.1,0C-1061.8-367.7-1061.7-367.7-1061.7-367.7z M-1061.2-366.1c0.3-0.1,0.6,0.1,0.8,0.2
			c0.1,0,1.4-0.2,1.6-0.3c0.3,0.2,0.9,0.5,1.3,0.5c0.1,0.1,0.1,0.2,0.1,0.3c0,0,0,0.1,0,0.1c-0.1,0-0.1,0-0.2,0
			c0,0.1,0.1,1.2-0.1,1.4c-0.1,0.1-0.1,0-0.2,0.3c-0.3,0.1-0.5-0.1-0.7-0.1c-0.2-0.1-1.2,0.2-1.2,0.2c-0.1,0,0,0-0.1-0.1
			c-0.6,0.1-0.7,0.2-1.4,0.2c0,0,0-0.1,0-0.1c-0.1-0.1-0.1,0-0.2-0.1c0-0.1,0-0.1-0.1-0.2c0-0.1,0-0.1,0.2-0.1c0,0,0-0.1,0-0.1
			c-0.1,0-0.2,0.1-0.2,0.1c0.1-0.4,0-0.6,0.1-1c0,0,0,0,0,0c-0.1,0-0.1,0-0.1,0.1c0-0.2,0-0.2,0.1-0.3c-0.1-0.1,0-0.1-0.1-0.1
			c0-0.1,0-0.1,0.1-0.1c0-0.1,0-0.1,0-0.2c0,0,0,0.1-0.1,0.1c0-0.1-0.1-0.2-0.1-0.3C-1061.5-365.9-1061.5-366.1-1061.2-366.1z
			 M-1065.9-367.9C-1065.9-367.9-1066-367.9-1065.9-367.9C-1066-367.9-1066-367.9-1065.9-367.9C-1066-367.9-1066-367.9-1065.9-367.9
			z M-1066.2-368.2C-1066.2-368.2-1066.2-368.1-1066.2-368.2C-1066.2-368.1-1066.2-368.1-1066.2-368.2c0,0.1,0,0.1-0.1,0.1
			c0,0,0,0-0.1-0.1C-1066.3-368.1-1066.2-368.1-1066.2-368.2z M-1066.3-367.9C-1066.3-367.9-1066.3-367.9-1066.3-367.9
			C-1066.3-367.9-1066.3-367.9-1066.3-367.9z M-1066.4-368C-1066.5-368-1066.5-368-1066.4-368C-1066.4-368-1066.5-368.1-1066.4-368z
			 M-1066.8-358.1C-1066.8-358.1-1066.8-358.1-1066.8-358.1C-1066.8-358.1-1066.8-358.1-1066.8-358.1z M-1066-359.8
			C-1066-359.8-1066-359.8-1066-359.8C-1066-359.8-1066-359.8-1066-359.8z M-1065.9-359.8c0,0,0-0.1,0-0.1
			C-1065.9-359.9-1065.8-359.9-1065.9-359.8C-1065.8-359.8-1065.8-359.8-1065.9-359.8z M-1065.5-359.9
			C-1065.5-359.9-1065.4-359.9-1065.5-359.9C-1065.5-359.9-1065.4-359.9-1065.5-359.9z M-1064.9-358.4
			C-1064.9-358.4-1064.8-358.4-1064.9-358.4C-1064.9-358.3-1064.8-358.3-1064.9-358.4z M-1063.4-360c-0.5,0-0.8,0.1-1.2,0.1
			c0,0,0-0.1,0.1-0.1c0,0-0.1,0-0.1,0.1c0,0,0,0,0.1-0.1c0,0,0,0,0,0c0,0-0.1-0.1-0.1-0.1c-0.1,0.1,0,0.1-0.2,0.2c0,0,0.1,0,0.1-0.1
			c0,0-0.8-0.1-0.8-0.1c0,0,0.1,0.1,0.1,0.1c-0.1,0-0.1-0.1-0.3-0.1c0,0.1-0.2,0.2-0.3,0.2c0-0.1,0-0.1-0.1-0.1
			c-0.1,0.1,0,0.1,0,0.2c-0.1,0-0.2-0.1-0.4-0.1c0-0.2-0.1-0.3-0.2-0.4c0.1-0.3-0.2-1.2,0.2-1.5c0.3-0.5,2-0.1,2.3-0.4
			c0.1,0.1,0.5,0.2,0.7,0.2c0.1,0.1,0.2,0.3,0.3,0.4c0,0-0.1,0-0.1,0c0,0.3,0.1,0.3,0,0.5c0.1,0,0,0,0.1,0c0,0-0.1,0.1-0.1,0.1
			c0,0,0,0,0,0C-1063.2-360.9-1063.3-360.3-1063.4-360z M-1066.8-361.8C-1066.8-361.8-1066.7-361.8-1066.8-361.8
			c0.1-0.1,0.1-0.1,0.1-0.1C-1066.7-361.8-1066.7-361.8-1066.8-361.8z M-1063.4-361.3C-1063.4-361.3-1063.4-361.4-1063.4-361.3
			C-1063.4-361.3-1063.4-361.4-1063.4-361.3z M-1063.3-360.9C-1063.3-360.9-1063.3-360.9-1063.3-360.9
			C-1063.3-361-1063.3-361-1063.3-360.9C-1063.3-361-1063.3-361-1063.3-360.9z M-1063.1-364.3c0,0.1-0.1,0.1-0.1,0.2c0,0,0,0,0,0
			c0,0,0,0-0.1,0c-0.1,0.1-0.2,0.3-0.3,0.4c-0.3,0.1-0.8,0.2-1,0c-0.1-0.1-0.1-0.2-0.4-0.3c0.1-0.1-0.8,0.2-0.9,0.3
			c-0.1-0.1-0.3-0.2-0.4-0.2c-0.1,0.1,0,0-0.1,0.1c0,0,0,0,0,0c0-0.1,0-0.1-0.1-0.1c0,0,0,0.1,0,0.1c-0.1,0-0.1,0-0.2,0
			c-0.1-0.1-0.5-0.4-0.5-0.4c-0.2-0.1-0.3-1-0.4-1.1c0-0.1,0.1-0.2,0.2-0.3c0.3-0.1,0.4,0.1,0.6,0.1c0.3,0,0.5-0.1,0.7-0.2
			c0.2-0.1,0.5,0,0.6,0c0,0,0,0.1-0.1,0.1c0,0,0,0.1,0,0.1c0.1,0,0.3,0,0.4-0.2c0.5,0,0.5,0.1,0.8,0c0.2,0.1,0.3,0.2,0.5,0.2
			C-1063.3-365.4-1063.1-364.4-1063.1-364.3z"/>
		<path class="st1" d="M-1053-349.5c0-0.1,0-0.1,0-0.2c0,0-0.1,0-0.1,0.1c0-0.1,0-0.1,0.1-0.2c-0.1-0.1-0.2,0-0.3,0.1
			c-0.2-0.2-0.7-0.9-1.1-1c-0.1,0-0.2,0.1-0.4,0.1c-0.1-0.1-0.4-0.5-0.4-0.6c-0.2-0.1-0.2-0.1-0.5-0.1c-0.1-0.1-0.1-0.2-0.2-0.3
			c0-0.1,0-0.1,0.1-0.1c-0.1-0.1-0.1,0-0.3-0.1c-0.1-0.1-0.1-0.3-0.4-0.4c0,0.1,0,0.1,0,0.2c-0.2,0-0.1,0.1-0.3,0.1c0,0,0,0,0,0.1
			c0,0.1-0.2,0.1-0.3,0.2c0.1,0.1,0,0,0.1,0c0,0.1-0.1,0.1,0,0.1c-0.1,0-0.1,0.1-0.2,0.1c0,0-0.1-0.1-0.1-0.1c0,0.1,0.1,0.1,0.1,0.2
			c0,0,0.1,0,0.1,0c0,0,0.3,0.6,0.3,0.6c0,0-0.2,0.2-0.2,0.2c0,0.1,0.2,1.4,0.3,1.5c0.1,0.2,0.9,0.5,0.9,0.5c0,0,0,0.1-0.1,0.1
			c0,0,0.1,0.1,0.1,0.1c0.1,0.1,0.5,0,0.5-0.1c0.2,0.3,0.8,0.5,0.9,0.8c0.4,0.1,0.7,0,1.2-0.1c0.2-0.3,0.4-0.8,0.2-1.3
			C-1052.7-349.4-1052.8-349.5-1053-349.5z"/>
		<path class="st1" d="M-1068.4-351.2C-1068.4-351.3-1068.4-351.3-1068.4-351.2c0-0.2-0.3-0.5-0.5-0.5c0,0.1-0.1,0-0.2,0
			c0,0.1,0,0.1,0.1,0.2c-0.1,0.1-0.2,0.2-0.3,0.3c-0.1,0-0.2,0-0.3,0.1c0,0-1.5,1.9-1.5,1.9c0,0.1,0,0.1,0,0.2
			c0.2,0.1,0.2,0.2,0.5,0.2c0,0-0.1,0-0.1,0.1c0.1,0.1,0.3,0.2,0.3,0.2c0.1,0,0.1-0.1,0.2-0.2c-0.1,0-0.1,0-0.1-0.1c0,0,0,0.1,0,0.1
			c0,0-0.1,0-0.1,0c0-0.3,0-0.2,0.2-0.3c0.1,0.1,0.1,0.3,0.3,0.4c0.1-0.1,0-0.1,0.2-0.1c0,0,0,0.1,0,0.1c0.1,0,0.2,0,0.3,0
			c0,0.1,0.1,0.1,0.1,0.2c0.1,0,0.1,0,0.1-0.1c0,0,0,0.1,0.1,0.1c0.2-0.1,0.4-0.3,0.5-0.4c0.1-0.1,0.1-0.1,0-0.2
			c0.1-0.1,0.1-0.1,0.1-0.3c0.1,0,0.1,0,0.2,0c-0.1-0.1,0,0-0.1-0.1c0-0.1,0-0.1,0.1-0.2c0,0,0,0,0,0c0.1,0.1,0,0,0,0.1c0,0,0,0,0,0
			c0.1-0.1,0.1-0.1,0.1-0.3c0.1,0,0,0,0.1,0c0-0.1,0-0.1-0.1-0.1c0.1-0.1,0.1,0,0.2-0.1c0,0-0.1-0.1-0.1-0.1
			c0.1-0.1,0.1-0.1,0.2-0.1c0-0.1,0-0.1,0.1-0.2c0,0-0.1,0-0.1,0c0-0.1,0-0.1,0.1-0.2C-1068.2-350.7-1068.3-351.2-1068.4-351.2z"/>
	</g>
</g>
<g>
	<path class="st0" d="M-1200.6-374.5c0.3-0.9,0.9-1.6,1.6-2.3c1.5-1.4,3.6-2.2,5.7-2.1c0.3,0,0.5,0,0.8,0c1.8,0.2,3.5,1,4.7,2.3
		c1,1.2,1.5,2.9,1.5,4.6c0,1-0.2,2-0.5,3c-0.3,0.9-0.8,1.8-1.4,2.4c-0.7,0.7-1.5,1.3-2.5,1.7c-1,0.4-2,0.6-3,0.6
		c-0.6,0-1.3-0.1-1.8-0.2c-1.9-0.5-3.6-1.7-4.5-3.4c-0.4-0.7-0.7-1.5-0.8-2.3c-0.1-0.6-0.2-1.1-0.2-1.7
		C-1201.1-372.8-1200.9-373.7-1200.6-374.5"/>
	<path class="st0" d="M-1201-374.6c-0.3,0.9-0.5,1.8-0.5,2.7c0,0.6,0.1,1.2,0.2,1.7c0.2,0.8,0.5,1.7,0.9,2.4c1,1.8,2.8,3.1,4.8,3.6
		c0.6,0.2,1.3,0.2,2,0.2c1.1,0,2.2-0.2,3.2-0.6c1-0.4,1.9-1,2.7-1.8c0.7-0.7,1.2-1.6,1.5-2.6c0.3-1,0.5-2,0.5-3.1
		c0-1.8-0.5-3.6-1.6-4.9c-1.2-1.5-3.1-2.3-4.9-2.5c-0.3,0-0.6,0-0.9,0c-2.2,0-4.4,0.8-6,2.3C-1200.1-376.4-1200.7-375.5-1201-374.6"
		/>
	<g>
		<path class="st1" d="M-1188.2-370.4c0-0.3-0.2-0.3-0.1-0.7c0,0,0,0-0.1,0c0,0,0,0,0,0c0,0,0-0.1,0-0.1c0,0,0,0-0.1,0c0,0,0,0,0,0
			c0,0,0,0,0,0.1c0,0,0,0,0,0c0,0,0,0,0-0.1c-0.1,0,0,0-0.1,0c0,0,0,0,0,0c0,0,0,0,0,0c0,0,0,0,0.1,0.1c-0.1,0,0,0-0.1-0.1
			c0,0,0,0,0,0c0,0,0,0,0,0.1c0,0,0,0,0,0c0,0,0,0,0,0c0,0,0,0,0-0.1c-0.2,0-0.4-0.2-0.5-0.1c-0.1,0.1-0.5,0.3-0.7,0.2
			c0,0-0.1-0.1-0.1-0.1c-0.2-0.1-0.5,0.1-0.7,0c-0.1,0-0.2-0.2-0.4-0.1c0,0-0.1,0-0.1,0.1c0,0-0.1,0-0.1,0c-0.1,0-0.2,0.1-0.3,0.1
			c-0.2,0-0.6-0.1-0.6-0.3c0,0,0,0,0,0c0,0,0,0,0,0.1c-0.1,0-0.1,0-0.2-0.1c0,0,0,0,0,0.1c0,0-0.1,0-0.1,0c0,0.1,0,0.1,0,0.2
			c-0.2-0.1-0.3,0-0.5,0.1c-0.2,0-0.2-0.1-0.3-0.1c-0.1-0.1-0.1-0.2-0.1-0.3c0-0.1,0,0-0.1,0c0,0,0,0,0,0c0,0,0-0.3-0.1-0.4
			c0.1,0,0.1-0.1,0.1-0.2c0,0,0,0,0,0c0-0.1,0.3-0.3,0.4-0.2c0,0,0,0,0-0.1c0,0,0.1,0,0.1,0.1c0,0,0,0,0,0c0,0.1,0,0,0.1,0
			c0,0,0,0,0,0.1c0,0,0.1,0,0.1,0c0,0,0.1-0.1,0.1-0.1c0,0,0.1,0,0.1,0c0.1,0,0,0,0.1,0.1c0,0,0,0,0-0.1c0.1,0,0.1,0,0.1,0
			c0,0,0,0,0,0c0,0,0,0,0,0c0,0,0,0,0,0c0.1,0,0.1,0,0.1,0c0,0,0,0-0.1-0.1c0,0,0,0,0,0c0.2,0.1,0.6-0.1,0.8,0c0,0,0,0,0.1-0.1
			c0,0,0,0,0,0c0.1,0,0.2-0.1,0.3-0.1c0,0,0-0.1,0.1-0.1c0.1,0,0.2,0,0.3,0c0,0,0,0,0,0.1c0,0,0,0,0,0c0,0,0-0.1,0-0.1
			c0,0,0.1,0,0.1,0c0,0,0,0,0-0.1c0.2-0.2,0.2-0.5,0.1-0.6c0,0,0,0,0.1,0c0-0.1,0-0.1,0-0.1c0,0,0,0,0,0c0,0,0,0,0.1-0.1
			c0,0,0-0.1,0-0.2c0,0,0,0,0,0c0,0,0,0,0.1,0c0-0.1,0-0.1,0-0.2c0,0,0,0-0.1,0c0,0,0.2-0.4,0.2-0.4c0,0-0.1-0.2-0.1-0.2
			c0,0,0.1-0.1,0.1-0.1c0,0-0.1,0-0.1,0c0-0.1,0.1-0.3,0.2-0.4c0,0,0,0,0,0c0,0,0,0,0,0c-0.1-0.1-0.1-0.1-0.1-0.3c0.1,0,0,0,0.1,0
			c0,0,0,0,0,0c0.1-0.1,0.1-0.1,0.1-0.3c-0.1,0,0,0-0.1,0c0,0,0,0,0-0.1c0-0.1-0.1-0.2-0.1-0.2c0.1-0.1,0.2-0.1,0.2-0.3
			c-0.1-0.1-0.4-0.4-0.4-0.4c0-0.1,0-0.1-0.1,0c0,0,0,0,0,0c0,0,0,0,0-0.1c-0.1,0-0.1-0.1-0.1-0.1c0,0,0,0,0-0.1c0,0,0,0,0,0
			c0,0,0,0,0-0.1c0,0,0,0,0,0c0,0,0,0,0,0c0,0,0,0,0,0.1c0,0,0,0,0,0c0,0,0,0,0,0c0,0,0,0,0,0c-0.1,0,0,0,0-0.1c0,0,0,0,0,0.1
			c0,0,0-0.1,0-0.1c0,0,0,0,0,0c0,0,0,0,0.1,0c0,0-0.1,0-0.2-0.1c0,0,0,0,0,0.1c0,0,0,0-0.1-0.1c0,0-0.1,0-0.1,0c0,0,0,0,0,0.1
			c-0.1,0-0.1-0.1-0.2-0.1c0,0,0,0,0,0c0,0-0.2,0.1-0.3,0.1c-0.2,0-0.4-0.1-0.5-0.1c-0.1-0.1-0.5,0-0.6,0c-0.1,0-0.4,0.1-0.5,0.1
			c0,0,0,0,0,0.1c-0.1,0-0.2,0-0.3,0c0,0,0,0,0-0.1c-0.1,0-0.6,0.2-0.6-0.1c-0.1,0.1-0.1,0.1-0.2,0.2c-0.1,0-0.3,0-0.4,0.1
			c0,0,0-0.1,0-0.1c0,0-0.1-0.1-0.1-0.1c0,0,0,0,0,0.1c0,0-0.1-0.1-0.1-0.1c0,0,0,0,0,0.1c0,0,0,0,0,0c0,0,0-0.1,0-0.1
			c-0.1,0-0.1,0-0.2,0c0,0,0,0-0.1,0c0,0,0,0,0,0.1c-0.1,0-0.1-0.1-0.2,0c0,0,0-0.1,0-0.1c-0.1,0-0.1,0-0.3,0c0,0,0,0,0,0
			c0,0,0,0-0.1,0.1c0,0,0.1,0,0.1,0c-0.1,0.1-0.1,0.1-0.3,0c0,0,0,0,0,0c0,0,0,0,0,0c0,0,0,0,0,0c0,0,0,0,0,0c0,0.1,0,0-0.1,0.1
			c0,0,0,0,0-0.1c-0.1,0-0.1,0.1-0.2,0.1c0,0,0,0,0,0c-0.1,0-0.2,0-0.3,0c0,0,0,0,0-0.1c-0.1,0-0.2,0.1-0.3,0.2
			c-0.1,0-0.2,0-0.3,0.1c-0.1,0-0.1,0.1-0.2,0.2c0,0.1,0,0,0.1,0.1c0,0.1-0.1,0.3-0.1,0.3c0,0,0,0,0,0c0,0.1,0,0,0,0.1
			c0,0,0,0,0.1,0c0,0.1,0.1,0.2,0.1,0.3c0,0,0,0.1-0.1,0.1c0,0.1,0.1,0.2,0.1,0.4c0,0,0,0-0.1,0.1c0.1,0.2,0.1,0.3,0.1,0.4
			c0,0.1,0,0-0.1,0.1c0,0,0,0,0,0c0,0,0,0,0,0c0,0,0,0,0.1,0c0,0,0,0.1,0,0.1c0,0,0,0-0.1,0c0,0.1,0,0,0.1,0.1c0,0,0,0,0,0
			c0,0,0,0-0.1,0c0,0,0,0,0,0c0.1,0.1,0.1,0.1,0.2,0.2c0,0.1-0.1,0.1-0.1,0.2c0,0.1,0,0.1,0,0.2c0,0-0.1,0-0.1,0c0.1,0,0.1,0,0.1,0
			c0,0,0,0.1,0,0.1c0,0,0,0,0.1,0c0,0,0,0,0,0c-0.1,0.1-0.1,0-0.2,0.1c0,0,0.1,0,0.1,0c0,0,0,0.1,0,0.1c0,0,0.1,0,0.1,0
			c0,0.1,0,0.3,0.1,0.4c0,0-0.1,0-0.1,0c0,0,0,0.1,0,0.1c0,0,0.1,0,0.1,0c0,0,0,0,0,0c0,0.2,0.1,0.1,0.1,0.1c0,0.1,0,0.2,0,0.2
			c0,0,0.2,0.1,0.3,0.1c0,0,0,0.1,0,0.1c-0.1,0-0.1,0-0.2,0c0,0,0,0,0,0c0.1,0.1,0.2,0.1,0.2,0.2c0.1,0,0,0,0.1,0c0,0,0,0,0-0.1
			c0,0,0.2,0,0.3,0.1c0,0,0,0,0-0.1c0,0,0.1,0,0.1,0c0,0,0,0-0.1,0c0,0,0,0,0.1,0c0,0,0-0.1,0-0.1c0,0,0.1,0.1,0.1,0c0,0,0,0,0,0.1
			c0-0.1,0.1-0.1,0-0.1c0,0,0.1,0,0.1,0c0,0,0,0,0-0.1c0.1,0,0.2,0.1,0.3,0.1c0.1,0,0,0,0.1,0c0,0,0,0-0.1,0c0.2,0,0.6,0,0.6-0.1
			c0.2,0,0.2,0.1,0.4,0.1c0,0,0,0,0,0.1c0,0.1,0,0-0.1,0.1c0,0,0,0,0,0.1c0,0,0.1,0,0.1,0.1c0,0.1,0,0.1,0,0.2c0,0,0,0,0,0
			c0,0,0,0.1,0,0.1c0,0,0,0,0,0c0,0,0,0,0.1,0c0,0,0,0,0,0c0,0,0,0,0,0.1c0,0,0.1,0,0.1,0c0,0,0,0-0.1,0.1c0,0,0,0,0,0
			c0,0,0.1,0,0.1,0c0,0.1,0,0.1,0,0.2c-0.1,0.1-0.2,0.1-0.2,0.3c-0.1,0-0.1,0-0.1,0.1c-0.1,0-0.1,0-0.2,0c0,0,0,0,0-0.1
			c-0.1,0,0,0-0.1,0c0,0,0,0,0,0.1c-0.1,0,0,0-0.1,0c0,0,0,0,0,0c0,0,0,0,0,0c0,0,0,0,0,0c0,0-0.3,0.1-0.4,0.1c0,0,0,0,0,0
			c0,0,0,0,0,0c-0.1,0-0.2,0-0.2,0.1c-0.1,0-0.2,0-0.4-0.1c-0.1,0-0.2,0.1-0.3,0.1c0,0,0-0.1,0-0.1c0,0,0,0,0,0.1
			c-0.1,0-0.1,0-0.2,0c0,0.1,0,0-0.2,0c0,0,0,0,0,0c0,0-0.8,0-0.8,0c0,0,0-0.1-0.1-0.1c-0.1,0-0.1,0-0.1,0c0,0,0,0,0,0
			c0-0.1-0.2,0.1-0.4,0.1c-0.1,0-0.8,0-0.7,0.3c0,0.1,0,0,0.1,0.1c0,0.1,0,0,0,0.1c0.1,0,0.1,0.1,0.2,0.1c0,0,0,0.1,0,0.1
			c0.2,0.1,0.2,0.1,0.4,0.1c0,0,0.1,0.1,0.2,0.1c0,0,0,0,0,0.1c0,0,0.1,0,0.1,0c0.1-0.1,0.1-0.1,0.2-0.1c0,0,0-0.1,0-0.1
			c0.2-0.1,0.3,0,0.7,0c0.2,0,0.4,0,0.6-0.1c0,0,0,0,0,0c0,0,0,0,0,0c0.3,0,0.5,0,0.8-0.1c0,0,0,0,0,0c0,0,0.1,0,0.1-0.1
			c0,0,0.1,0,0.1,0c0,0,0,0,0,0c0.1,0.1,0.6-0.1,0.7-0.1c0,0,0,0-0.1,0.1c0,0,0,0,0,0c0.2,0,0.3,0.1,0.3,0.3c0,0-0.1,0-0.1,0.1
			c0,0.1,0.1,0.3,0.1,0.4c0,0,0,0,0.1,0c0,0.2,0,0.2,0,0.3c0,0,0,0-0.1,0c0,0,0,0,0,0c0,0.1-0.1,0.6,0.1,0.6c-0.1,0-0.1,0.1-0.1,0.2
			c0,0,0,0,0-0.1c0,0,0,0.1,0.1,0.1c0,0.3-0.1,0.4-0.2,0.7c0.1,0,0.2,0.1,0.2,0.1c0,0-0.1,0-0.1,0c0,0.2,0.1,0.4,0,0.6
			c-0.1,0.2-0.1,0.2-0.1,0.5c0,0,0,0-0.1,0c0,0.1,0,0,0,0.1c0,0,0,0,0,0c0,0,0,0,0,0c0,0,0,0,0-0.1c0,0,0,0,0,0
			c0,0.1,0.1,0.2,0.1,0.3c0,0,0.1,0,0.1,0c0.1,0.1,0,0.1,0,0.2c0,0,0,0,0,0c0,0,0,0,0,0c0,0,0,0,0.1,0c0-0.1,0,0,0-0.1
			c0,0,0,0,0.1,0.1c0,0,0,0-0.1,0c0,0,0,0.1,0,0.1c0,0,0,0,0.1,0c0,0,0,0,0,0c0-0.1,0.1-0.1,0.1-0.1c0,0,0.1,0,0.1,0.1
			c0,0,0,0,0.1-0.1c0.1,0,0,0,0.1,0c0-0.1,0.2-0.1,0.3-0.2c0-0.1,0-0.1,0-0.2c0,0,0-0.1-0.1-0.1c0,0,0,0,0,0c0,0,0,0,0,0
			c0-0.1,0-0.3,0-0.4c0,0,0,0-0.1,0c-0.1-0.3,0.1-0.5,0.1-0.7c-0.1-0.6-0.3-1.6-0.4-2.2c0,0,0,0,0,0c0,0,0,0,0,0
			c0-0.3,0.3-0.4,0.4-0.7c0,0,0.3,0,0.3,0c0,0,0.1,0.1,0.1,0.1c0.2,0,0.2-0.1,0.4-0.2c0,0,0.1,0.1,0.1,0.1c0,0,0,0,0.1,0
			c0,0,0,0,0.1,0c0,0,0,0,0,0c0,0,0,0,0-0.1c0.1,0,0.2,0,0.3,0c0,0.2,0.8,0,1.2,0c0.1,0,0.2,0,0.2,0c0.1,0,0.2,0.1,0.3,0.1
			c0,0,0,0,0,0c0,0,0.9,0,1,0c0,0,0,0,0,0c0.1,0,0.1,0,0.2,0c0-0.1,0-0.1,0.1-0.1c0,0,0,0,0,0.1c0,0,0-0.1,0-0.1c0,0,0,0,0,0
			c0,0,0,0,0,0.1c0,0,0.1,0,0.2,0c0,0,0,0,0,0c0,0,0,0,0,0c0,0,0,0,0.1,0c0,0,0,0,0,0.1c0,0,0,0,0,0c0.1,0,0.4,0,0.5,0.1
			c0,0,0,0,0,0c0.1,0,0.1-0.1,0.2-0.1c0,0,0,0,0,0C-1188.3-370.3-1188.2-370.4-1188.2-370.4z M-1190.4-374.4
			C-1190.4-374.3-1190.4-374.3-1190.4-374.4C-1190.4-374.3-1190.4-374.3-1190.4-374.4C-1190.4-374.4-1190.4-374.4-1190.4-374.4z
			 M-1190.5-373.5C-1190.5-373.5-1190.5-373.5-1190.5-373.5C-1190.5-373.4-1190.5-373.4-1190.5-373.5
			C-1190.5-373.5-1190.5-373.5-1190.5-373.5z M-1190.6-372.7C-1190.6-372.7-1190.6-372.7-1190.6-372.7
			C-1190.6-372.7-1190.6-372.7-1190.6-372.7z M-1193.2-373.2C-1193.1-373.2-1193.2-373.2-1193.2-373.2
			C-1193.2-373.2-1193.2-373.2-1193.2-373.2z M-1191.3-373.2c0,0.1,0,0,0,0.1c-0.2,0.1-0.5,0-0.7-0.1c0,0,0,0-0.1,0c0,0,0,0,0,0
			c0,0.1-0.3,0-0.4,0c0,0,0,0,0,0c0,0.1,0,0-0.1,0.1c0,0,0,0,0-0.1c-0.1,0-0.3,0-0.4,0c-0.1-0.1-0.1,0-0.3-0.1
			c-0.1,0-0.2-0.1-0.3-0.2c0,0,0,0,0,0c0,0,0,0,0,0c0,0,0,0,0,0.1c0,0,0,0,0,0c0,0,0,0,0,0c0,0,0,0,0.1-0.1c0,0,0,0-0.1,0
			c0-0.1,0-0.1-0.1-0.1c0-0.1,0-0.2,0-0.4c0.1,0,0.1-0.1,0.2-0.1c0,0,0,0,0-0.1c0.2,0.1,0.2-0.1,0.3-0.1c0,0,0.1,0,0.1,0.1
			c0.1,0,0,0,0.1-0.1c0.1,0,0.3,0,0.4,0c0,0,0,0,0,0c0.1,0.1,0.4,0,0.4,0.1c0,0,0,0,0-0.1c0.1,0,0.2,0,0.3,0.1c0,0,0,0,0,0
			c0.1,0,0.2,0,0.3,0C-1191.2-373.8-1191.2-373.5-1191.3-373.2C-1191.3-373.2-1191.3-373.2-1191.3-373.2z M-1191.2-372.4
			C-1191.2-372.4-1191.2-372.4-1191.2-372.4C-1191.2-372.4-1191.2-372.4-1191.2-372.4z M-1191.4-376.8
			C-1191.4-376.8-1191.4-376.8-1191.4-376.8C-1191.4-376.8-1191.4-376.8-1191.4-376.8C-1191.4-376.8-1191.4-376.8-1191.4-376.8z
			 M-1193.3-376.8C-1193.3-376.7-1193.3-376.7-1193.3-376.8C-1193.3-376.8-1193.3-376.8-1193.3-376.8z M-1193-376
			c0.1,0,0.3,0.1,0.4,0.1c0,0,0.7-0.1,0.8-0.2c0.2,0.1,0.4,0.2,0.6,0.3c0,0,0,0.1,0,0.1c0,0,0,0,0,0c-0.1,0,0,0-0.1,0
			c0,0,0,0.6-0.1,0.7c0,0.1-0.1,0-0.1,0.1c-0.1,0-0.2,0-0.3-0.1c-0.1,0-0.6,0.1-0.6,0.1c0,0,0,0,0,0c-0.3,0.1-0.3,0.1-0.7,0.1
			c0,0,0,0,0,0c0,0-0.1,0-0.1,0c0-0.1,0-0.1,0-0.1c0-0.1,0-0.1,0.1-0.1c0,0,0,0,0,0c0,0-0.1,0-0.1,0c0-0.2,0-0.3,0.1-0.5
			c0,0,0,0,0,0c0,0,0,0-0.1,0c0-0.1,0-0.1,0-0.1c0,0,0,0-0.1,0c0,0,0,0,0-0.1c0,0,0-0.1,0-0.1c0,0,0,0,0,0.1c0,0,0-0.1,0-0.1
			C-1193.2-375.9-1193.2-376-1193-376z M-1195.4-376.9C-1195.4-376.9-1195.4-376.9-1195.4-376.9
			C-1195.4-376.9-1195.4-376.9-1195.4-376.9C-1195.4-376.9-1195.4-376.9-1195.4-376.9z M-1195.5-377
			C-1195.5-377-1195.5-377-1195.5-377C-1195.5-377-1195.5-377-1195.5-377C-1195.5-376.9-1195.5-377-1195.5-377
			C-1195.5-376.9-1195.5-377-1195.5-377C-1195.5-377-1195.5-377-1195.5-377z M-1195.6-376.8
			C-1195.6-376.9-1195.6-376.9-1195.6-376.8C-1195.6-376.9-1195.6-376.9-1195.6-376.8z M-1195.6-376.9
			C-1195.6-376.9-1195.6-376.9-1195.6-376.9C-1195.6-376.9-1195.6-376.9-1195.6-376.9z M-1195.8-372.1
			C-1195.8-372-1195.8-372-1195.8-372.1C-1195.8-372-1195.8-372-1195.8-372.1z M-1195.4-372.9
			C-1195.4-372.9-1195.4-372.9-1195.4-372.9C-1195.4-372.9-1195.4-372.9-1195.4-372.9z M-1195.3-372.9
			C-1195.3-372.9-1195.3-372.9-1195.3-372.9C-1195.3-372.9-1195.3-372.9-1195.3-372.9C-1195.3-372.9-1195.3-372.9-1195.3-372.9z
			 M-1195.1-372.9C-1195.1-372.9-1195.1-372.9-1195.1-372.9C-1195.1-372.9-1195.1-372.9-1195.1-372.9z M-1194.9-372.2
			C-1194.8-372.2-1194.8-372.2-1194.9-372.2C-1194.8-372.2-1194.8-372.1-1194.9-372.2z M-1194.1-373c-0.2,0-0.4,0-0.6,0.1
			c0,0,0,0,0,0c0,0,0,0-0.1,0c0,0,0,0,0,0c0,0,0,0,0,0c0,0,0,0-0.1,0c0,0,0,0-0.1,0.1c0,0,0,0,0,0c0,0-0.4,0-0.4-0.1c0,0,0,0,0,0.1
			c0,0,0,0-0.1-0.1c0,0-0.1,0.1-0.2,0.1c0,0,0,0,0-0.1c0,0,0,0,0,0.1c-0.1,0-0.1-0.1-0.2,0c0-0.1-0.1-0.2-0.1-0.2
			c0.1-0.1-0.1-0.6,0.1-0.8c0.2-0.3,1-0.1,1.1-0.2c0.1,0,0.3,0.1,0.4,0.1c0,0,0.1,0.2,0.1,0.2c0,0,0,0-0.1,0c0,0.1,0,0.2,0,0.3
			c0,0,0,0,0.1,0c0,0,0,0-0.1,0.1c0,0,0,0,0,0C-1194-373.4-1194.1-373.1-1194.1-373z M-1195.8-373.8
			C-1195.8-373.9-1195.8-373.9-1195.8-373.8C-1195.8-373.9-1195.7-373.9-1195.8-373.8C-1195.8-373.9-1195.8-373.8-1195.8-373.8z
			 M-1194.1-373.6C-1194.1-373.6-1194.1-373.6-1194.1-373.6C-1194.1-373.6-1194.1-373.6-1194.1-373.6z M-1194.1-373.4
			C-1194.1-373.4-1194.1-373.4-1194.1-373.4C-1194.1-373.4-1194.1-373.5-1194.1-373.4C-1194.1-373.5-1194.1-373.4-1194.1-373.4z
			 M-1194-375.1C-1194-375.1-1194-375-1194-375.1c0,0.1,0,0.1,0,0.1c0,0,0,0,0,0c0,0.1-0.1,0.1-0.1,0.2c-0.1,0-0.4,0.1-0.5,0
			c-0.1,0-0.1-0.1-0.2-0.1c0-0.1-0.4,0.1-0.4,0.2c-0.1,0-0.1-0.1-0.2-0.1c0,0,0,0,0,0.1c0,0,0,0,0,0c0,0,0,0-0.1-0.1c0,0,0,0,0,0.1
			c0,0-0.1,0-0.1,0c-0.1-0.1-0.2-0.2-0.2-0.2c-0.1,0-0.1-0.5-0.2-0.6c0-0.1,0-0.1,0.1-0.1c0.1-0.1,0.2,0,0.3,0
			c0.1,0,0.2-0.1,0.3-0.1c0.1,0,0.2,0,0.3,0c0,0,0,0,0,0c0,0,0,0,0,0c0,0,0.2,0,0.2-0.1c0.2,0,0.2,0,0.4,0c0.1,0.1,0.1,0.1,0.2,0.1
			C-1194.1-375.6-1194-375.1-1194-375.1z"/>
		<path class="st1" d="M-1189-367.8c0,0,0-0.1,0-0.1C-1189-367.9-1189.1-367.9-1189-367.8c0-0.1,0-0.2,0-0.2c-0.1,0-0.1,0-0.2,0
			c-0.1-0.1-0.4-0.5-0.5-0.5c-0.1,0-0.1,0.1-0.2,0.1c-0.1,0-0.2-0.3-0.2-0.3c-0.1,0-0.1-0.1-0.2-0.1c0-0.1-0.1-0.1-0.1-0.2
			c0-0.1,0,0,0-0.1c-0.1-0.1-0.1,0-0.1-0.1c-0.1-0.1-0.1-0.1-0.2-0.2c0,0,0,0.1,0,0.1c-0.1,0-0.1,0.1-0.1,0.1c0,0,0,0,0,0
			c0,0-0.1,0.1-0.1,0.1c0,0,0,0,0.1,0c0,0.1,0,0,0,0.1c0,0-0.1,0-0.1,0c0,0,0,0-0.1-0.1c0,0,0,0.1,0,0.1c0,0,0,0,0.1,0
			c0,0,0.1,0.3,0.2,0.3c0,0-0.1,0.1-0.1,0.1c0,0,0.1,0.7,0.1,0.7c0.1,0.1,0.4,0.3,0.5,0.2c0,0,0,0,0,0.1c0,0,0,0,0.1,0.1
			c0.1,0,0.2,0,0.3,0c0.1,0.2,0.4,0.2,0.4,0.4c0.2,0,0.3,0,0.6-0.1c0.1-0.1,0.2-0.4,0.1-0.6C-1188.9-367.8-1188.9-367.8-1189-367.8z
			"/>
		<path class="st1" d="M-1196.6-368.7C-1196.6-368.7-1196.6-368.7-1196.6-368.7c0-0.1-0.1-0.2-0.3-0.3c0,0,0,0-0.1,0
			c0,0,0,0.1,0,0.1c-0.1,0-0.1,0.1-0.2,0.1c-0.1,0-0.1,0-0.2,0c0,0-0.7,0.9-0.7,0.9c0,0,0,0.1,0,0.1c0.1,0,0.1,0.1,0.2,0.1
			c0,0,0,0,0,0c0.1,0.1,0.1,0.1,0.2,0.1c0,0,0.1,0,0.1-0.1c-0.1,0,0,0-0.1,0c0,0,0,0,0,0.1c0,0,0,0-0.1,0c0-0.1,0-0.1,0.1-0.2
			c0,0.1,0.1,0.1,0.1,0.2c0.1,0,0,0,0.1-0.1c0,0,0,0,0,0.1c0,0,0.1,0,0.1,0c0,0,0,0.1,0.1,0.1c0,0,0,0,0.1-0.1c0,0,0,0,0,0.1
			c0.1-0.1,0.2-0.1,0.3-0.2c0-0.1,0,0,0-0.1c0-0.1,0.1-0.1,0.1-0.2c0,0,0,0,0.1,0c0,0,0,0-0.1,0c0,0,0,0,0-0.1c0,0,0,0,0,0
			c0,0,0,0,0,0.1c0,0,0,0,0,0c0,0,0.1-0.1,0.1-0.1c0,0,0,0,0.1,0c0,0,0,0-0.1-0.1c0-0.1,0,0,0.1-0.1c0,0,0,0-0.1,0c0,0,0.1,0,0.1,0
			c0,0,0,0,0-0.1c0,0,0,0-0.1,0c0,0,0-0.1,0.1-0.1C-1196.5-368.4-1196.5-368.6-1196.6-368.7z"/>
	</g>
</g>
</svg>
