<?xml version="1.0" encoding="utf-8"?>
<!-- Generator: Adobe Illustrator 24.0.0, SVG Export Plug-In . SVG Version: 6.00 Build 0)  -->
<svg version="1.1" id="NexT" xmlns:svg="http://www.w3.org/2000/svg"
	 xmlns="http://www.w3.org/2000/svg" xmlns:xlink="http://www.w3.org/1999/xlink" x="0px" y="0px" viewBox="0 0 512 512"
	 style="enable-background:new 0 0 512 512;" xml:space="preserve">
<style type="text/css">
	.st0{fill:#FFFFFF;}
	.st1{fill:#222222;}
</style>
<path class="st0" d="M256.4,25.8l-200,115.5L56,371.5l199.6,114.7l200-115.5l0.4-230.2L256.4,25.8z"/>
<g>
	<path class="st1" d="M264.5,146.9c0,0.8,0,1.6,0,2.4c-0.7,0.7-0.3,0.1-0.7,1.4c1.1,0.2,0.8-0.1,1.7,1c-1,1.2-1,1.7-0.7,3.7
		c1-0.6,0.8-0.6,1.7-0.7c0,0.1,0,0.2,0,0.3c-1.5,6.2-0.1,8.9-1.4,13.9c1-0.3,2-0.7,3-1c0,0.3,0,0.7,0,1c-1.8,0.3-1.5,0.1-2,1.7
		c1.3,0.7,0.9,0.3,1,2c1.7,0.2,2.1,0,3,0.7c-0.1,0.3-0.2,0.7-0.3,1c9.1,0.6,10.2-1.1,18.3-2.7c0.5,0.5-0.4,1.3,0.7,1
		c0.2-0.3,13.4-3.7,15.6-3c3,1,5.2,2.5,9.1,1.7c1.2-3,1.7-1.7,3-3.4c2.8-2.3,1.5-16.6,1.7-17.9c1.3,0.2,0.9,0,2.4,0.3
		c-0.1-0.3-0.2-0.7-0.3-1c0.1-1.4-0.3-2.4-1-3.7c-5.2-0.6-12.2-4.4-16.6-7.1c-1.8,2.1-19.6,4.6-20.6,4.4c-2.2-0.4-6.7-3-10.1-2
		c-3.6,1-4.3,3.2-9.1,3.7c0.3,1.2,0.7,2.5,1,3.7C264,147.8,264.3,147.4,264.5,146.9z"/>
	<path class="st1" d="M318.9,194.3c-2.5,0.1-4.3-0.8-7.4-0.7c0.3-0.3,0.7-0.7,1-1c-3.1-0.2-4.8-0.7-7.8-1.4
		c-0.1,0.5-0.2,0.9-0.3,1.4c-1.4-1.6-8.3,0.2-10.8-1.7c-0.1,0.3-0.2,0.7-0.3,1c-2.4-0.4-7.4-1.5-10.5-0.3c-0.8,0.3-0.3,1.7-2,1.4
		c-1.1-0.6-2.3-1.1-3.4-1.7c-3,0.6-2.9,4.7-7.1,2.7c0.1,0.5,0.2,0.9,0.3,1.4c-2.3-0.6-3.7,0.6-5.7,1.4c-0.3,3.3-0.7,6.5-1,9.8
		c0.5,1.7,1.5,1.5,1.4,3.7c0.6,0.1,1.1,0.2,1.7,0.3c-1.6,0.7-0.8,0.5-1.4,1.7c0.8,0.4,0.4-0.2,0.7,1c-0.3,0-0.7,0-1,0
		c-0.3-0.5-0.7-0.9-1-1.4c0,0.3,0,0.7,0,1c0.1,0.2,0.2,0.5,0.3,0.7c3.3,1.2,5.9,3.4,7.8,4.4c3.5,1.8,3.7-1.5,7.1,1.7
		c2.1-1.5,6.7-1.5,9.5-1c-0.3,1.3-0.7,0.3,0,1.4c1.2-0.7,1.7,0,2.4-1.4c-0.2-0.2-0.5-0.5-0.7-0.7c2.6,0.9,9.4,1.7,10.1,0
		c-0.2-0.2-0.5-0.5-0.7-0.7c0.5-0.3,0.9-0.7,1.4-1c4.3,1.6,12.4,4.2,17.9,2.7c-1.2-1.5-0.9-1.2-1-2.7c0.8,0,1.8,0.4,1-0.3
		C320.8,208.6,321.2,201,318.9,194.3z"/>
	<path class="st1" d="M242.2,209.5c0-0.1,0-0.2,0-0.3c0.6-0.5,1.1-0.9,1.7-1.4c-1.1,0.3-0.4,0.3-1.4,0.3c0.6-3,0-3.8-0.3-7.1
		c0.6,0,1.1,0,1.7,0c-0.2-0.9-2.5-4.1-3.4-5.4c-3,0.7-8.4-0.9-9.8-2c-4.4,3.5-26.6-1.8-30.8,5.1c-6,4.8-1.1,16.9-3,20.3
		c1.5,0.2,2.9,2.4,3,4.7c3-0.4,3.7,0.8,5.4,1c-0.1-1.5-0.4-1.5,0.3-2.4c0.7,0.7,0.6,0.5,1,1.7c1.6-0.4,4-1.2,4.1-2.4
		c2.1,0.3,2.4,1.1,3.4,1.4c-0.3-0.6-0.7-1.1-1-1.7c1.1,0.3,11.2,1.4,11.2,1.4c-0.3,0.2-0.7,0.5-1,0.7c1.4-0.7,1.2-0.8,2-2
		c0.5,0.3,0.9,0.7,1.4,1c0,0.1,0,0.2,0,0.3c-0.9,0.2-0.5,0-0.7,0.7c0.6-0.2,1.1-0.5,1.7-0.7c-0.2,0.3-0.5,0.7-0.7,1
		c5.1-0.8,9.3-1.4,15.6-1.7C244.2,217.6,245.4,210.6,242.2,209.5z"/>
	<path class="st1" d="M342.6,184.8c-0.2,0-0.5,0-0.7,0c0.1,0.2,0.2,0.5,0.3,0.7C342.4,185.2,342.5,185,342.6,184.8z"/>
	<path class="st1" d="M339.9,208.1c0,0.5,0,0.9,0,1.4c0.1,0,0.2,0,0.3,0C340.1,209,340,208.6,339.9,208.1z"/>
	<path class="st1" d="M243.5,209.5c0.2,0,0.5,0,0.7,0c-0.1-0.2-0.2-0.5-0.3-0.7C243.7,209,243.6,209.3,243.5,209.5z"/>
	<path class="st1" d="M240.5,148.6c-2.8-0.8-4-1.5-6.4-3c-4.6,1.2-5,0.1-11.2,0c-1.2,1.9-4.9,2.5-5.7,2.4c-0.1-0.3-0.2-0.7-0.3-1
		c0.2-0.3,0.5-0.7,0.7-1c-2.1,0.7-5.6-0.9-8.5,0.3c-2.5,1.1-5.3,2.7-9.1,3c-2.8,0.3-3.8-2.4-7.4-0.7c-1.3,0.7-2.1,1.4-2.4,3.4
		c0.9,2,2.6,14.1,4.7,14.9c0.1,0.3,4.4,4,6.1,5.7c0.8,0,1.6,0,2.4,0c0-0.5,0-0.9,0-1.4c1,0.6,0.8,0.8,1.4,1.7c0.1,0,0.2,0,0.3,0
		c0.4-1.5,0.2-0.9,1-1.7c1.9,1,3.8,2,5.7,3c1.3-1,12.5-5.5,11.5-4.1c3.1,0.6,2.8,2.5,4.7,3.7c3,1.8,10.1,0.7,13.5-0.3
		c0.7-2.2,2.2-4,3.3-5.7c0.1,0,0.3,0,0.7,0c-0.2-0.1-0.4-0.1-0.6-0.2c0.6-0.9,1-1.7,1.3-2.6C246.7,163.5,244.1,150.5,240.5,148.6z"
		/>
	<path class="st1" d="M256.4,25.8l-200,115.5L56,371.5l199.6,114.7l200-115.5l0.4-230.2L256.4,25.8z M179.6,347.8
		c-1.6,0.4-1.4,1.2-1.7,2c0.6,0,1.1,0,1.7,0c-0.1,1.4-0.1,1.3-0.7,2c-0.2,0-1,0.2-2,1c0.5,0.3,0.9,0.7,1.4,1c-1,1.2-1.2,0.3-2,1.7
		c1.3,0.5,1.1,0.1,1.7,1.4c-1.1-0.3-0.4-0.3-1.4-0.3c0.2,1.4-0.3,2.4-1.4,3.4c-0.1,0-0.2,0-0.3,0c-0.1-1.3,0.4-0.4-0.3-1.4
		c-0.1,0-0.2,0-0.3,0c-0.2,1.8-0.5,2-0.7,2.7c1.5,0.4,0.7-0.2,1.4,1c-1.8-0.5-1.7-0.9-3-0.3c-0.3,2.4-0.6,2.9-1.7,4.4
		c1.4,1.3,1.2,0.3,0.3,2c-2.3,1.3-4.4,3.4-7.1,4.7c-0.2-0.5-0.5-0.9-0.7-1.4c-0.7,0.9-0.2,0.8-1.4,1.4c-0.5-0.8-0.9-1.6-1.4-2.4
		c-1.2,0.1-2.5,0.2-3.7,0.3c0.1-0.5,0.2-0.9,0.3-1.4c-2.5,0.2-1.3,0.4-2.7,1.4c-2.2-1.4-2.5-4-3.7-5.4c-1.5,1.6-1.7,0.7-2,4.1
		c0.5,0,0.9,0,1.4,0c0-0.6,0-1.1,0-1.7c0.7,1.3-0.1,0.6,1.4,1c-0.6,1-0.9,1.5-2,2c-0.4-0.8-2.7-1.5-4.1-3c0.3-0.2,0.7-0.5,1-0.7
		c-3.4-0.4-3.5-2.2-6.1-3c0-0.8,0-1.6,0-2.4c0,0,19.9-24.6,19.9-24.7c1.4-0.2,2.7-0.5,4.1-0.7c1.8-0.9,2.4-2.8,4.1-3.7
		c-0.2-0.8-0.5-1.6-0.7-2.4c1.6,0.1,2,1,2.4,0c3.4,0.5,6.9,4.4,7.8,6.1c-0.3,0.3-0.7,0.7-1,1C178.5,338.2,179.7,344.3,179.6,347.8z
		 M382.1,380.2c-6.6,1.8-9.7,2.5-15.6,1.7c-1.2-3.5-8.8-5.7-11.8-10.1c-1,0.4-5.4,1.8-7.1,1c-0.6-0.5-1.1-0.9-1.7-1.4
		c0.2-0.5,0.5-0.9,0.7-1.4c-1.2,0.3-10.6-3.9-12.5-6.4c-1.3-1.7-4.2-18.9-3.7-19.9c0,0,1.8-1.5,2.4-2c-0.6-0.5-4.4-8.1-4.4-8.1
		c-0.6,0.1-1.1,0.2-1.7,0.3c0.1-1.1-0.1-1.5-0.7-2.7c0.6,0.5,1.1,0.9,1.7,1.4c0.7-0.3,1.4-0.7,2-1c-0.7-0.7,0,0,0.3-1.7
		c-1.3-0.1-0.4,0.4-1.4-0.3c1.6-0.8,3.3-1.7,3.7-2.7c-0.7-0.3-0.9-0.1-0.3-0.7c1.6-0.1,0.6-1.5,3.4-1.7c-0.1-0.7-0.2-1.4-0.3-2
		c3.1,1.4,3,3.4,4.7,4.7c1.8,1.5,2.1-0.3,3.7,1.4c-0.8,0.8-0.6,0.2-1,1.7c0.9,1.4,1.8,2.7,2.7,4.1c3-0.4,3.2,0.3,6.1,1.4
		c-0.3,1.7,3.1,7.4,4.7,8.5c1.9,0.4,3.7-1.6,5.1-1.4c4.3,0.6,11.2,10,14.2,13.2c1.2-0.7,3-1.6,4.4-0.7c-0.8,0.8-0.6,1.5-1,2.7
		c0.5-0.2,0.9-0.5,1.4-0.7c-0.3,1.7,0.1,2.2-0.3,3c3.1,0,4.5,1.1,5.4,3.4C387.1,370.1,384.6,376.9,382.1,380.2z M399.7,294
		c0.2,0,0.5,0,0.7,0c-1.3,1.7-2.7,2.7-4.1,3.4c0.8,0.6,0.4,0.2,0,1c-3-1.6-10.2-2.6-13.2-2.4c-0.3,1.2,0.4,0.4-0.7,1
		c-0.1-1.3,0.4-0.4-0.3-1.4c-0.6,0-1.1,0-1.7,0c0,0.1,0,0.2,0,0.3c0.2,0.3,0.5,0.7,0.7,1c-2.3-0.2-4.2,0.7-5.1,0.3
		c0.3-0.6,0.7-1.1,1-1.7c-0.3-0.1-0.7-0.2-1-0.3c-0.1,0.7-0.2,1.4-0.3,2c-1.2-0.7-0.8-0.6-1-1.4c-1.1,0.7-1,0.5-1.4,2
		c-1.6-0.2-3.2-0.5-4.7-0.7c0.1-0.2,0.2-0.5,0.3-0.7c-0.9,0.3-26.2,0.1-26.4,0c0.2-0.2,0.5-0.5,0.7-0.7c-2.2,0.1-4.8-1.6-7.1-2.4
		c-2,0.1-4.1,0.2-6.1,0.3c-10.1,0-32.3,3.4-32.8-0.7c-3,0.6-4.4,1.1-7.4,0.7c-0.1,0.6-0.2,1.1-0.3,1.7c0.3,0,0.7,0,1,0
		c-0.9,0.6-0.5,0.5-1.7,0.3c-0.5,0.1-0.9,0.2-1.4,0.3c-0.5-2-1.7-2.7-2.7-3.7c-4.7,1.5-6.2,3.1-11.2,4.1c-1.1-2.3-1.5-3-2.7-3.7
		c-0.7,1-6.5,0.4-7.8,0.7c-2.8,7.2-9.2,11-10.1,18.9c0.1,0,0.2,0,0.3,0c0.4-1,0-0.4,0.7-1c2.6,16,6.4,41.5,9.5,58.2
		c1.4,7.5-4.6,12.4-1.4,19.6c0.7,1.3,0.4,1.2,1.7,1c-0.4,2.7,0,7.1-1,10.8c-0.3-0.3-0.7-0.7-1-1c0,0.3,0,0.7,0,1
		c0.7,0.5,1.1,1.1,1.4,2c-1.8,1.4,0.1,2.5-1,4.4c-1.4,2.4-5.9,3.4-7.1,5.7c-1.5-1.1-1.1-1.5-2.7-1c0,2.2-0.1,2.2-1.4,3
		c-1-0.5-2-0.9-3-1.4c-0.2,1.7-0.9,1.5-1.7,3.4c-0.1,0-0.2,0-0.3,0c-0.5-0.2-0.9-0.5-1.4-0.7c0-0.9,0-1.8,0-2.7
		c0.5,0.1,0.9,0.2,1.4,0.3c-0.8-1-1.1-1.1-1.4-2c-0.9,0.7-0.8,0.5-1,2c-0.5-0.1-0.9-0.2-1.4-0.3c0-0.3,0-0.7,0-1
		c1.2-0.3,0.4,0.4,1-0.7c-0.9-1.1,1.3-2.5-0.3-5.1c-0.8-0.3-1.6-0.7-2.4-1c-1.3-1.5-1.9-4.4-2.7-6.8c-0.2,0-0.5,0-0.7,0
		c0.4,1.3,0.9,0.9,0,2c-0.1,0.2-0.2,0.5-0.3,0.7c-0.2-0.2-0.5-0.5-0.7-0.7c0.1-1.2-0.2,0-0.7-2c0.5,0.2,0.9,0.5,1.4,0.7
		c-1.3-6.7,1-7.2,2.4-12.8c1.3-5.3-1.3-10.4-0.7-14.9c0.8-0.1,1.6-0.2,2.4-0.3c-1.7-1.2-4.2-1.4-5.7-2.7c2.4-7.4,7.7-10.7,6.4-18.3
		c-2.3-0.9-2-1.5-3-2.7c-0.3,1.2,0,0.7-0.7,1.4c0.3-2.3,1-2.9,2.4-4.1c-5.7-1.6-2.6-14.1-2.7-16.9c-0.9-0.3-1.2,0.1-0.7-0.7
		c1.1,0.1,0.8,0.3,1.7-0.3c-2.2-3.6-1.8-4.3-1-8.5c-0.5,0.1-0.9,0.2-1.4,0.3c-0.2-3.8-1.2-7.7-2-10.8c-0.6-2.3,1-2.4,1.4-3.4
		c1.7-4.6-3.2-8.5-7.4-8.5c0-0.1,0-0.2,0-0.3c0.5-0.5,0.9-0.9,1.4-1.4c-2.7,0.6-15.4,4.7-18.6,3c0.2-0.2,0.5-0.5,0.7-0.7
		c-1.1,0.1-2.3,0.2-3.4,0.3c-0.7,0.6-1.4,1.1-2,1.7c0.3,0.2,0.7,0.5,1,0.7c-7.6,0.8-14.6,1.2-21.5,1.7c-0.1,0.1-0.1,0.2-0.2,0.3
		c0-0.1-0.1-0.2-0.1-0.3c-5.1,0.4-10.2,0.9-15.4,1.6c-8.5,1.2-12.7-3.8-17.9,0c-0.2,1-0.5,2-0.7,3c-3-0.4-4.2-0.2-5.7,1.7
		c-0.8-0.3-1.6-0.7-2.4-1c0.3-0.6,0.7-1.1,1-1.7c-1.6,0-2.8-2-4.1-2.4c-5.3,0.4-6.4-0.8-11.8-2.4c0.2-1,0.5-2,0.7-3
		c-1.5-1-2.9-2-4.4-3c1.1-1.7-0.2-0.4,1-2c-1.3-0.9-1.4,0-1.4-1.7c-0.4-8.3,16.1-9.3,19.9-8.8c4.5,0.6,9.3-4.2,10.5-2.4
		c0.1,0,0.2,0,0.3,0c0.8-1.1,1.3,0,3-1c0.5,0.8,0.9,1.6,1.4,2.4c0,0,20.1,0.2,20.3,0.3c-0.1,0.2-0.2,0.5-0.3,0.7
		c2.9-0.8,3.7,0.4,4.1-1c1.4,0,2.7,0,4.1,0c0-0.5,0-0.9,0-1.4c0.3,0.7,0.7,1.4,1,2c3-0.5,4.6-3,7.1-3.7c3.2,0.5,6.3,0.9,9.5,1.4
		c2-1,3.8-1.8,6.4-2c0.1,0.2,0.2,0.5,0.3,0.7c-0.3,0.1-0.7,0.2-1,0.3c2.2,0,10.1-2,10.1-2c0.2-0.2,0.5-0.5,0.7-0.7
		c-0.7-0.6-0.2,0-0.7-1c0.1,0,0.2,0,0.3,0c0.9,0.6,0.6,0.7,2,1c-0.3-1.2-0.4-1-0.3-2c1.4,0.8,0.7,0.3,2.7,0.7
		c-0.1,0.8,0.1,0.3-0.3,1.4c2.8-1.5,3.7-1.5,6.4-0.3c0.4-1.9,2.3-1.2,3.7-1.7c0.5-4.5,2.2-5.4,5.1-7.1c-0.1-2.8-1.5-4.4-1-6.1
		c-0.7,0.3-1.4,0.7-2,1c0-0.3,0-0.7,0-1c1.2-0.5,0.7-0.3,1.4-1.4c-0.7,0.3-1.4,0.7-2,1c0.4-1.3,0-0.7,1-1.4
		c-0.1-0.2-0.2-0.5-0.3-0.7c-0.9,0.4-0.7,0.6-1.7,0.3c0.3-0.1,0.7-0.2,1-0.3c-0.1-1,0.1-2.1,1-3c0.2,0.2,0.5,0.5,0.7,0.7
		c-0.9-1.7-0.8-2.4-0.7-4.7c-1-0.5-2-0.9-3-1.4c-0.1-0.5-0.2-0.9-0.3-1.4c1.2-0.2,0.8,0.4,1.4-1.4c-0.7-0.5-0.6-0.6-1-1.4
		c-4.9-0.4-5.7-1.2-10.1-2c-0.7,2.7-10.8,3.2-15.6,2.7c0.5,0.3,0.9,0.7,1.4,1c-0.7,0.9-0.2,0.6-1.7,1c-2.3-0.9-4.9-3.1-6.8-3
		c0.7,1.4,0.8,0.6,0.3,1.7c-0.8-0.2-1.6-0.5-2.4-0.7c0.6,1.6,0.3,1.7-1,3c-0.2-1.2-0.1-1-0.7-1.7c-1.1,2.3-2.4,0.4-3,0
		c0,0.7,0,1.4,0,2c-1.1-0.3-1.4-0.3-2-1c0.5,0,0.9,0,1.4,0c-0.7-0.3-1.4-0.7-2-1c-0.2,0.5-0.5,0.9-0.7,1.4c-1.9-0.9-5.8-2.1-6.8-2
		c-0.1,0.5-0.2,0.9-0.3,1.4c-1.6-1,0-0.1-2,0.3c-0.8-3-5.1-1.9-6.4-5.4c0.2,0,0.5,0,0.7,0c1.5,0,2.9,0,4.4,0c-0.3-0.8-0.7-1.6-1-2.4
		c-1.3,0.3-6.4-0.2-7.4-1.4c-0.3-1.9,1.6-3.9,0.3-6.4c-0.9-1.8-4.3,0.4-3-3.7c0-0.1,0-0.2,0-0.3c-1.4,0.4-2,0.2-3-0.3
		c-0.1-1.2-0.2-2.5-0.3-3.7c0.7-0.1,1.4-0.2,2-0.3c-0.7-3.3-1.9-8.3-1.4-10.1c-0.8-0.1-1.6-0.2-2.4-0.3c0.1-0.8,0.2-1.6,0.3-2.4
		c-0.7,0-1.4,0-2,0c0.7-3.2,2.2-1,4.1-2.4c0-0.1,0-0.2,0-0.3c-1.2-0.4-1-0.3-1.7-1c0.2-0.7,0.5-1.4,0.7-2c-1.3,0.3-1.3,0.6-2.7-0.3
		c0.8-0.1,1.6-0.2,2.4-0.3c-0.9-2.1-1.6-2.6-0.7-4.1c0.9-2,1.9-2.4,2.4-5.1c-1.3-1.4-3.1-3.6-4.7-5.4c0.2-1,0.6-0.2,0-1
		c0.8-0.7,0.8-0.4,1.7-0.7c0-0.1,0-0.2,0-0.3c-1.2-1.1-1.1-0.7-1.4-2.4c0.5,0.2,0.9,0.5,1.4,0.7c0.2-1.2,0.5-2.5,0.7-3.7
		c-1.5-0.1-1.6-0.1-2.4-0.7c0.3-0.1,0.7-0.2,1-0.3c-1-0.7-1.5-0.1-0.7-1c0.5-2.1,1.1-1.5,1.7-3.4c-2.1-0.9-1.7-5.4-3.7-9.5
		c0.6-0.6,1.1-1.1,1.7-1.7c-0.3-3.1-3.1-8.1-2.4-9.5c0.7-1.5,1.8-1.9,1.7-3c0.5-2.6-2.8-6-2.7-7.4c-0.6,0.1-1.1,0.2-1.7,0.3
		c0.1-2.7,0.3-2.2-0.3-3.7c-0.1-0.2-0.2-0.5-0.3-0.7c0,0,3.5-6.1,3-7.8c-0.3-0.8-0.9-0.7-1.4-2c2.7-0.8,3.2-3.2,5.4-4.4
		c3.2-1.7,6.5-2,8.8-2.7c3.2-1,3.9-4,7.8-4.7c0,0.6,0,1.1,0,1.7c2.3-1.2,5.4,0.6,7.1-0.7c-0.2-0.1-0.5-0.2-0.7-0.3
		c2.8-0.2,3-1.9,5.1-2.7c0.2,0.5,0.5,0.9,0.7,1.4c1.6-1,2,0.2,2.7-2c-0.3,0-0.7,0-1,0c-0.6,0.7,0,0.2-1,0.7c0-0.1,0-0.2,0-0.3
		c0.1-0.3,0.2-0.7,0.3-1c3.3,0.7,5.4,1.9,7.1-0.7c-0.7-0.3-1.4-0.7-2-1c0.9-0.7,1.4-0.6,2-1.7c-0.2-0.2-0.5-0.5-0.7-0.7
		c3.7,0.3,3.5-0.8,6.8-0.7c0,0.8,0,1.6,0,2.4c1.3-0.9,1.9-0.1,4.1,1c-0.3-0.5-0.7-0.9-1-1.4c1.4-0.2,2.6,0.1,2-1
		c1.7,0.3,3.4,0.7,5.1,1c-0.2,0.7-0.5,1.4-0.7,2c0.1,0,0.2,0,0.3,0c0.1-0.5,0.2-0.9,0.3-1.4c1.1,0.9,2.3,1.8,3.4,2.7
		c0.1-1.2-0.2-0.7,0.7-1.7c0.7,0.7,1.4,1.4,2,2c-0.4,0.9-0.7,1.4,0,2.7c2.8-1,8.2-0.3,10.5-1.4c1.5-1.5,2.9-2.9,4.4-4.4
		c1.5,7.5,14.6,2.3,16.9,2.7c-0.2,0.5-0.5,0.9-0.7,1.4c2.7,0.1,5.4,0.2,8.1,0.3c0.1-0.6,0.2-1.1,0.3-1.7c2.3,1,10.2-3.4,12.2-2.7
		c4.7,1.7,13.7-0.7,16.9,0.7c3.4,1.4,9.4,3.7,14.2,3c2.7-0.4,6-2.8,7.1-2.7c-0.2,0.2-0.5,0.5-0.7,0.7c3.3-0.5,2.9,1.1,6.1,2
		c0.1-0.5,0.2-0.9,0.3-1.4c0.8,0.2,1.6,0.5,2.4,0.7c0.3,1.7,0.1,1.4,1.4,2c-0.1-0.6-0.2-1.1-0.3-1.7c1.6,0.6,3.6,0.6,4.4,1.7
		c-1-0.4-0.5-0.3-1.4-0.3c0,0.1,0,0.2,0,0.3c0.3,0.8,0.7,1.6,1,2.4c0.4-0.6,0.4-0.9,1-1.4c0.2,1.5-0.7,0.7,0.7,1.4
		c0.2-0.1,0.3-0.1,0.4,0c0.4-0.6,0.9-1.1,1.3-1.7c0.3,0.3,0.7,0.7,1,1c-0.4,0.6-0.2,1.2,0.7,0.7c0.2,0.5,0.5,0.9,0.7,1.4
		c-0.3-0.2-0.7-0.5-1-0.7c0.3,0.5,0.7,0.9,1,1.4c1.4-1.2,2,0.9,3.7,1.4c-0.3,0.6-0.7,1.1-1,1.7c0.3,0,0.7,0,1,0
		c0.9-1.2,0.8-0.7,1.4,0.7c0,0.7,7.5,9,9.5,10.8c-0.8,5.4-3.4,7.5-6.1,9.1c1.1,1.3,2.4,4,3,5.7c-1.6,0.5-1.3,0.4-1,1.4
		c1.1-1.2,0.2-0.8,1.7-0.3c0.2,4.6,0.4,4.1-1.4,7.8c0.3-0.1,0.7-0.2,1-0.3c-0.7,1.1-0.2,0.7-1.7,1c1.4,3.4,0.8,5.1,3,7.1
		c0.1-0.9-0.3-0.2,0.3-1c0.1,0,0.2,0,0.3,0c-0.5,2.7-3.2,7.9-4.4,10.1c0.7-0.1,1.4-0.2,2-0.3c-0.7,0.7-1.4,1.4-2,2
		c1.1,1.7,3.4,5.4,3.7,6.4c0,0-4.9,10.8-4.7,11.8c0.5-0.1,0.9-0.2,1.4-0.3c-0.8,2.8-1,1.7-0.3,4.7c-0.5-0.2-0.9-0.5-1.4-0.7
		c0,0.1,0,0.2,0,0.3c0.2,0.6,0.8,4.2,0.7,4.4c-1.1,1.2-1.5,0.5-2,1.7c0.3,0,0.7,0,1,0c-1.5,2.1-1.6,1.6-1,3.7
		c-1.2,0.2-1,0.1-1.7,0.7c3.6,5.1,3.6,12.8-1.4,17.2c0.3,0.6,0.7,1.1,1,1.7c-1,0.2-2,0.5-3,0.7c0.5,1.3,0.7,1.6,0.7,2.7
		c-0.3,0-0.7,0-1,0c-0.2-0.5-0.5-0.9-0.7-1.4c-2.2,0.8-4.8-0.1-7.1,0.7c-1.4,0.5-2.1,2-2.7,2.4c-2.9,1.2-5.1,1.9-7.4,3
		c0,0,0-2-0.3-1c-1.6,0-1.3,0.1-2.4,1.4c-5.9-4.1-16,0.7-21-1c-0.3,0.2-0.7,0.5-1,0.7c1.5,0.6,1,0.4,1.4,1.4c-1.6-0.6-1.8-0.5-3.4,0
		c0-0.3,0-0.7,0-1c0.3-0.2,0.7-0.5,1-0.7c-0.2-0.1-0.5-0.2-0.7-0.3c-1.6,0.6-1.7,0.4-3-0.3c-0.3,1.5,0,1-1,1.7
		c-0.4-1.7-0.1-1.3-1.7-1.7c-0.5,0.6-0.8,0.1-2,0.7c0.1,1.3-0.5,2.1-1.4,3.4c-1.1,0.1-2.3,0.2-3.4,0.3c0.1-0.5,0.2-0.9,0.3-1.4
		c-1.4,0.4-0.9,0.8-1.4-0.7c0.5-0.5,0.1,0,0.3-0.7c-1.2-0.6-2.5-1.1-3.7-1.7c-0.1,0.5-0.2,0.9-0.3,1.4c-2.7-3.3-10.3,1.2-11.2,4.4
		c0.5,0.8,0.5,0,0.3,1c-0.3,1.9-0.1,3.8-1.7,5.1c1.3,1,2,10.1,2,10.1c-0.1,0.1-0.2,0.2-0.3,0.3c1.7-0.2,0.9-1,1.7,0.7
		c2.1,2.6,0.5,6.1,3.7,8.5c2.3,0.3,2.9,3.3,7.4,2.4c6.7-1.4,8.9-4.8,14.5-2.7c0.3-1.9,0.7-3.8,1-5.7c0.7,0.1,1.4,0.2,2,0.3
		c-0.4-1.3-0.7-1,0-2c1.8,0.6,3.6,1.1,5.4,1.7c-0.3-1.6-0.8-0.8,0.3-2c0.2,0.2,0.5,0.5,0.7,0.7c-1,5.8,10.7,9.7,15.9,8.5
		c3-0.8,4.6-3,7.4-3.7c1.1,0.3,2.3,0.7,3.4,1c0.9-0.6,1.8-1.1,2.7-1.7c3-0.7,7.2,2.7,9.5,3.7c4.3,2,13.1-3,18.6,0
		c0.7,0.8,1.4,1.6,2,2.4c4.6,2.1,15.5-3.4,17.9-5.1c3.4-2.3,8.7,2.1,12.8,2.4c-0.5,0.8-0.6,0.6-1,1.7c0.2,0.2,0.5,0.5,0.7,0.7
		c0.1,0,0.2,0,0.3,0c-0.1-0.6-0.2-1.1-0.3-1.7c0.2,0.2,0.5,0.5,0.7,0.7c1.5,1.1,0.6,1.8,2.4,2.4c-0.5-0.5-0.9-0.9-1.4-1.4
		c0.1-0.3,0.2-0.7,0.3-1c0.1-0.1,0.2-0.2,0.3-0.3c1.4,0.6,0.9,0.5,2.4,0c0.1,0.6,0.2,1.1,0.3,1.7c0.1,0,0.2,0,0.3,0
		c0.1-0.6,0.2-1.1,0.3-1.7c0.5,0.6-0.1,0.5,0.7,0.3c0.5-0.3,0.9-0.7,1.4-1c0.2,0.8,0.5,1.6,0.7,2.4c0.1-0.3,0.2-0.7,0.3-1
		c0.5-0.2,0.9-0.5,1.4-0.7c-1.1,9,2.6,10.7,3.7,17.6C400.9,291.8,400.5,292.7,399.7,294z"/>
	<path class="st1" d="M198.9,197.6c-0.2,0.3-0.5,0.7-0.7,1c0.5-0.2,0.9-0.5,1.4-0.7C199.3,197.9,199.1,197.8,198.9,197.6z"/>
	<path class="st1" d="M243.2,203.7c-0.1,0.2-0.2,0.5-0.3,0.7C243.4,204,243.4,204.5,243.2,203.7z"/>
</g>
</svg>
